<?xml version="1.0" encoding="UTF-8"?>
<svg width="1280" height="720" version="1.1" viewBox="0 0 338.67 190.5" xmlns="http://www.w3.org/2000/svg" xmlns:cc="http://creativecommons.org/ns#" xmlns:dc="http://purl.org/dc/elements/1.1/" xmlns:rdf="http://www.w3.org/1999/02/22-rdf-syntax-ns#">
 <defs>
  <filter id="filter2026" x="-1.6806e-5" y="-2.239e-5" width="1" height="1" color-interpolation-filters="sRGB">
   <feGaussianBlur stdDeviation="0.00025903068"/>
  </filter>
 </defs>
 <metadata>
  <rdf:RDF>
   <cc:Work rdf:about="">
    <dc:format>image/svg+xml</dc:format>
    <dc:type rdf:resource="http://purl.org/dc/dcmitype/StillImage"/>
    <dc:title/>
   </cc:Work>
  </rdf:RDF>
 </metadata>
 <g>
  <g>
   <path d="m0 190.5h338.67v-190.5h-338.67z" fill="#fffffc"/>
   <path d="m0 190.5h338.67v-24.01h-338.67z" fill="#66c184"/>
   <path d="m0 166.49h338.67v-8.3199h-338.67z" fill="#3a8c55"/>
   <path d="m65.932 46.355h-5.2378v-19.208h5.2378z" fill="#ed6060"/>
   <path d="m64.015 44.292h-1.4025v-15.082h1.4025z" fill="#9e0e0e"/>
   <path d="m71.17 46.355h-5.2378v-19.558h5.2378z" fill="#e55a53"/>
   <path d="m71.17 46.355h-2.6189v-19.558h2.6189z" fill="#e01717"/>
  </g>
  <g transform="matrix(.39843 0 0 -.381 117.15 45.129)" fill="#e55a53">
   <path d="m0 0-12.858-2.74-10.507 49.306 12.858 2.741z" fill="#e55a53"/>
  </g>
  <g>
   <path d="m76.408 46.355h-5.2382v-20.129h5.2382z" fill="#ed6060"/>
   <path d="m81.647 46.355h-5.2378v-18.098h5.2378z" fill="#f7675c"/>
   <path d="m78.052 46.355h-1.6435v-18.098h1.6435z" fill="#e55a53"/>
   <path d="m86.885 46.355h-5.2382v-19.208h5.2382z" fill="#e01717"/>
   <path d="m86.885 46.355h-1.8858v-19.208h1.8858z" fill="#e55a53"/>
   <path d="m92.123 46.355h-5.2378v-18.478h5.2378z" fill="#e01717"/>
   <path d="m97.361 46.355h-5.2378v-19.208h5.2378z" fill="#ed6060"/>
   <path d="m94.229 46.355h-2.1065v-19.208h2.1065z" fill="#e55a53"/>
   <path d="m102.6 46.355h-5.2382v-21.272h5.2382z" fill="#f7675c"/>
   <path d="m102.6 46.355h-1.7292v-21.272h1.7292z" fill="#ff8680"/>
   <path d="m107.84 46.355h-5.2378v-19.208h5.2378z" fill="#f7675c"/>
   <path d="m106.38 44.864h-2.3268v-16.225h2.3268z" fill="#e55a53"/>
  </g>
 </g>
 <g transform="matrix(.39843 0 0 -.381 74.493 31.204)">
  <path d="m0 0c0-0.976-0.791-1.767-1.767-1.767s-1.767 0.791-1.767 1.767 0.791 1.767 1.767 1.767 1.767-0.791 1.767-1.767" fill="#fff8f3"/>
 </g>
 <g transform="matrix(.39843 0 0 -.381 74.493 34.061)">
  <path d="m0 0c0-0.976-0.791-1.767-1.767-1.767s-1.767 0.791-1.767 1.767 0.791 1.767 1.767 1.767 1.767-0.791 1.767-1.767" fill="#fff8f3"/>
 </g>
 <g transform="matrix(.39843 0 0 -.381 74.493 36.918)">
  <path d="m0 0c0-0.976-0.791-1.767-1.767-1.767s-1.767 0.791-1.767 1.767 0.791 1.767 1.767 1.767 1.767-0.791 1.767-1.767" fill="#fff8f3"/>
 </g>
 <g fill="#fff8f3">
  <path d="m90.045 34.734h-1.5937v-3.5303h1.5937z"/>
  <path d="m90.045 39.356h-1.5937v-3.5303h1.5937z"/>
  <path d="m90.045 43.978h-1.5937v-3.5303h1.5937z"/>
 </g>
 <g>
  <g transform="matrix(.39843 0 0 -.381 110.21 26.903)" fill="#f7675c">
   <path d="m0 0 10.916-49.22 6.483 1.382-10.507 49.307z" fill="#f7675c"/>
  </g>
  <path d="m59.897 46.355h0.79686v-14.097h-0.79686z" fill="#e55a53"/>
  <path d="m54.386 45.656h5.5115v0.69914h-5.5115z" fill="#ed6060"/>
  <g transform="matrix(.39843 0 0 -.381 136.09 34.486)" fill="#889648">
   <path d="m0 0c0.258 0.775 0.632 1.56 0.521 2.37-0.137 0.986-0.953 1.723-1.399 2.613-1.593 3.172 1.8 6.879 1.099 10.359-0.27 1.342-1.128 2.491-1.524 3.801-0.395 1.31-0.089 3.059 1.203 3.509-0.131 1.114 0.371 2.281 1.271 2.952 2.317-1.994-0.332-6.504 1.869-8.625 0.331-0.319 0.756-0.556 0.983-0.956 0.601-1.058-0.545-2.297-0.518-3.514 0.012-0.537 0.256-1.038 0.448-1.541 0.818-2.148 0.711-4.521 0.593-6.817-0.197-3.83-0.394-7.661-0.591-11.494-0.188-3.655-2.628-0.963-3.449 0.732-0.989 2.042-1.228 4.444-0.506 6.611" fill="#889648"/>
  </g>
  <g transform="matrix(.39843 0 0 -.381 135.22 34.065)" fill="#6b773a">
   <path d="m0 0c-2.879 2.189-7.455 2.24-9.854-0.466-1.538-1.735-1.95-4.155-2.665-6.361-0.714-2.205-2.079-4.532-4.35-5 3.198-0.123 4.804 1.549 5.887 3.74 0.558 1.129 0.809 2.429 1.611 3.4 0.878 1.062 2.34 1.559 3.709 1.404 1.37-0.155 2.631-0.912 3.542-1.946 1.085-1.23 1.698-2.844 1.814-4.48 0.034-0.476 0.029-0.962 0.17-1.419 0.36-1.165 1.771-1.882 2.925-1.486 4.511 1.55-0.597 10.947-2.789 12.614" fill="#6b773a"/>
  </g>
  <g transform="matrix(.39843 0 0 -.381 136.87 37.322)" fill="#6b773a">
   <path d="m0 0c-0.217 2.183-0.428 4.433 0.207 6.532 0.577 1.909 1.809 3.542 3.04 5.112 1.276 1.628 2.618 3.275 4.406 4.318 1.788 1.042 4.138 1.37 5.905 0.291 1.377-0.839 2.167-2.346 3.046-3.697 0.88-1.351 2.078-2.705 3.68-2.885-0.662-1.148-2.362-1.19-3.557-0.618-1.195 0.573-2.14 1.576-3.328 2.163-1.928 0.951-4.417 0.617-6.026-0.809-1.966-1.742-2.418-4.672-2.077-7.277 0.196-1.495 0.602-3.051 0.103-4.475-1.342-3.828-5.098-1.687-5.399 1.345" fill="#6b773a"/>
  </g>
  <path d="m137.87 36.684c0.10638-0.43472 0.2287-0.87744 0.49764-1.2417 0.66458-0.90145 2.1197-1.0417 3.1038-0.46634 0.64626 0.37795 1.1052 0.98565 1.6902 1.4459 0.58529 0.46025 1.561 0.66256 2.8675 0.17716-0.055 0.35509-1.6388 1.66-3.4078 0.48539-0.6602-0.43815-1.4483-0.802-2.2452-0.70294-0.59047 0.07315-0.93392 0.69228-1.0096 1.2565-0.26018 1.9389-1.883 0.62598-1.4965-0.95402" fill="#889648" stroke="#a3b25d" stroke-width=".38962"/>
  <g transform="matrix(.39843 0 0 -.381 138.17 34.223)" fill="#a3b25d">
   <path d="m0 0c-2.374 7.574-9.29 8.06-10.651 11.158-1.362 3.098-1.237 5.291-1.398 8.671-1.481-2.206-2.376-4.802-2.572-7.453-0.084-1.149-0.033-2.336 0.401-3.405 1.44-3.547 6.488-4.648 7.696-8.281 0.464-1.398 0.253-2.923-0.035-4.367-0.288-1.445-0.649-2.91-0.469-4.372 0.379-3.082 4.07-4.857 6.07-2.09 1.647 2.281 1.738 7.65 0.958 10.139" fill="#a3b25d"/>
  </g>
  <g transform="matrix(.39843 0 0 -.381 142.29 37.591)" fill="#e01717">
   <path d="m0 0h-25.447c-0.488 0-0.868-0.515-0.816-1.106l1.933-21.896h23.213l1.933 21.896c0.052 0.591-0.328 1.106-0.816 1.106" fill="#e01717"/>
  </g>
 </g>
 <g fill="#9e0e0e">
  <g transform="matrix(.39843 0 0 -.381 133.36 39.486)">
   <path d="m0 0c6.188-0.198 12.483-0.43 18.667-0.07 0.482 0.028 0.483 0.722 0 0.75-6.184 0.36-12.478 0.128-18.667-0.071-0.392-0.012-0.393-0.596 0-0.609" fill="#9e0e0e"/>
  </g>
  <g transform="matrix(.39843 0 0 -.381 134.16 41.346)">
   <path d="m0 0c1.734-0.036 3.679-0.318 5.387-8e-3 0.194 0.035 0.194 0.356 0 0.391-1.709 0.31-3.654 0.029-5.387-8e-3 -0.241-5e-3 -0.242-0.37 0-0.375" fill="#9e0e0e"/>
  </g>
  <g transform="matrix(.39843 0 0 -.381 134.69 43.311)">
   <path d="m0 0c1.323-0.044 2.793-0.269 4.098-0.01 0.35 0.07 0.35 0.638 0 0.708-1.306 0.26-2.775 0.034-4.098-0.011-0.442-0.014-0.443-0.672 0-0.687" fill="#9e0e0e"/>
  </g>
 </g>
 <path d="m176.15 50.673h-127.58v-4.3179h127.58z" fill="#d6d6d6"/>
 <path d="m146 83.418h7.2442" fill="#ffffff" stroke="#000000" stroke-width=".26458px"/>
 <g transform="translate(39.571)">
  <g transform="matrix(.39843 0 0 -.381 237.36 25.971)" fill="#079498">
   <path d="m0 0c0-17.765-14.401-32.167-32.166-32.167-17.766 0-32.167 14.402-32.167 32.167s14.401 32.167 32.167 32.167c17.765 0 32.166-14.402 32.166-32.167" fill="#079498"/>
  </g>
  <g transform="matrix(.39843 0 0 -.381 234.07 25.971)" fill="#06bcc1">
   <path d="m0 0c0-13.208-10.706-23.914-23.913-23.914-13.208 0-23.914 10.706-23.914 23.914 0 13.207 10.706 23.914 23.914 23.914 13.207 0 23.913-10.707 23.913-23.914" fill="#06bcc1"/>
  </g>
  <g transform="matrix(.39843 0 0 -.381 224.54 26.352)">
   <path d="m0 0h-13.42c-0.553 0-1 0.448-1 1s0.447 1 1 1h12.703l5.017 14.821c0.178 0.523 0.744 0.804 1.267 0.626 0.524-0.177 0.804-0.744 0.627-1.268l-5.247-15.5c-0.137-0.406-0.518-0.679-0.947-0.679" fill="#fff8f3"/>
  </g>
 </g>
 <g>
  <path d="m170.23 26.274h-1.3136v-26.274h1.3136z" fill="#808080"/>
  <g transform="matrix(.39508 0 0 -.381 180.76 34.061)" fill="#b3b3b3">
   <path d="m 0,0 h -56.646 c 0,15.638 12.678,28.317 28.328,28.317 C -12.68,28.317 0,15.638 0,0" fill="#b3b3b3"/>
  </g>
  <path d="m171.18 15.017h-3.2112v11.542h3.2112z" fill="#b3b3b3"/>
 </g>
 <g transform="translate(2.8916 -.33523)">
  <path d="m269.09 71.942h-16.139v-19.163h16.139z" fill="#f4b860"/>
  <path d="m266.98 69.879h-11.916v-15.036h11.916z" fill="#ffffcf"/>
  <g transform="matrix(.46245 0 0 -.44222 262.68 61.807)" fill="#f4b860">
   <path d="m0 0c0-2.498-1.478-4.523-3.3-4.523-1.823 0-3.301 2.025-3.301 4.523s1.478 4.523 3.301 4.523c1.822 0 3.3-2.025 3.3-4.523" fill="#f4b860"/>
  </g>
  <g transform="matrix(.46245 0 0 -.44222 260.44 63.576)" fill="#f4b860">
   <path d="m0 0s-3.763-0.083-3.962-3.167c-0.2-3.084 1-11.085 1-11.085h10.3v11.085s-1.186 3.167-4.262 3.167z" fill="#f4b860"/>
  </g>
 </g>
 <g transform="matrix(.38818 0 0 -.29742 46.734 171.06)" fill="#808080">
  <path d="m0 0h-9.333l20 152.31h9.333z" fill="#808080"/>
 </g>
 <g transform="matrix(.38818 0 0 -.29742 291.54 171.06)" fill="#808080">
  <path d="m0 0h9.333l-20 152.31h-9.333z" fill="#808080"/>
 </g>
 <path d="m295.56 120.7h-251.15v5.0561h251.15z" fill="#b3b3b3"/>
 <g transform="translate(-153.3 10.355)">
  <g transform="matrix(.39843 0 0 -.381 229.61 49.982)" fill="#3a8c55">
   <path d="m0 0h-24.699c-2.55 0-4.617-2.067-4.617-4.617v-4.734c0-2.549 2.067-4.617 4.617-4.617h24.699c2.55 0 4.617 2.068 4.617 4.617v4.734c0 2.55-2.067 4.617-4.617 4.617" fill="#3a8c55"/>
  </g>
  <path d="m234.69 72.703h-19.706v-18.843h19.706z" fill="#ffffff"/>
  <path d="m234.69 58.606h-19.706v-4.7465h19.706z" fill="#66c184"/>
  <g fill="#f2e9e4">
   <path d="m218.99 62.223h-2.3846v-2.2803h2.3846z"/>
   <path d="m222.4 62.223h-2.3846v-2.2803h2.3846z"/>
   <path d="m225.81 62.223h-2.3846v-2.2803h2.3846z"/>
   <path d="m229.23 62.223h-2.3846v-2.2803h2.3846z"/>
   <path d="m232.64 62.223h-2.3846v-2.2803h2.3846z"/>
   <path d="m218.99 65.165h-2.3846v-2.2803h2.3846z"/>
   <path d="m222.4 65.165h-2.3846v-2.2803h2.3846z"/>
   <path d="m225.81 65.165h-2.3846v-2.2803h2.3846z"/>
   <path d="m229.23 65.165h-2.3846v-2.2803h2.3846z"/>
   <path d="m232.64 65.165h-2.3846v-2.2803h2.3846z"/>
   <path d="m218.99 68.107h-2.3846v-2.2803h2.3846z"/>
   <path d="m222.4 68.107h-2.3846v-2.2803h2.3846z"/>
   <path d="m225.81 68.107h-2.3846v-2.2803h2.3846z"/>
   <path d="m229.23 68.107h-2.3846v-2.2803h2.3846z"/>
   <path d="m232.64 68.107h-2.3846v-2.2803h2.3846z"/>
   <path d="m218.99 71.048h-2.3846v-2.2803h2.3846z"/>
   <path d="m222.4 71.048h-2.3846v-2.2803h2.3846z"/>
   <path d="m225.81 71.048h-2.3846v-2.2803h2.3846z"/>
   <path d="m229.23 71.048h-2.3846v-2.2803h2.3846z"/>
   <path d="m232.64 71.048h-2.3846v-2.2803h2.3846z"/>
  </g>
  <g transform="matrix(.39843 0 0 -.381 219.55 51.24)" fill="#29653d">
   <path d="m0 0c-0.786 0-1.422-0.637-1.422-1.422v-8.823c0-0.785 0.636-1.422 1.422-1.422s1.422 0.637 1.422 1.422v8.823c0 0.785-0.636 1.422-1.422 1.422" fill="#29653d"/>
  </g>
  <g transform="matrix(.39843 0 0 -.381 229.76 51.24)" fill="#29653d">
   <path d="m0 0c-0.786 0-1.422-0.637-1.422-1.422v-8.823c0-0.785 0.636-1.422 1.422-1.422s1.422 0.637 1.422 1.422v8.823c0 0.785-0.636 1.422-1.422 1.422" fill="#29653d"/>
  </g>
 </g>
 <g transform="matrix(.76105 0 0 .76105 32.349 36.556)">
  <g transform="matrix(.39843 0 0 -.381 270.37 126.49)">
   <path d="m0 0h-18.424c-0.605 0-1.096-0.491-1.096-1.097v-60.381c0-0.605 0.491-1.095 1.096-1.095h18.424c0.605 0 1.097 0.49 1.097 1.095v60.381c0 0.606-0.492 1.097-1.097 1.097" fill="#ffffff"/>
  </g>
  <g transform="matrix(.39843 0 0 -.381 269.26 131.22)">
   <path d="m0 0c0-3.547-2.874-6.422-6.421-6.422-3.546 0-6.421 2.875-6.421 6.422 0 3.546 2.875 6.421 6.421 6.421 3.547 0 6.421-2.875 6.421-6.421" fill="#dbd6d2"/>
  </g>
  <path d="m265.97 131.95h-0.59765v-1.4604h0.59765z" fill="#8e8b88"/>
  <path d="m268.03 131.95h-0.59765v-1.4604h0.59765z" fill="#8e8b88"/>
  <g transform="matrix(.39843 0 0 -.381 269.26 138.41)">
   <path d="m0 0c0-3.546-2.874-6.421-6.421-6.421-3.546 0-6.421 2.875-6.421 6.421 0 3.547 2.875 6.422 6.421 6.422 3.547 0 6.421-2.875 6.421-6.422" fill="#dbd6d2"/>
  </g>
  <path d="m265.97 139.14h-0.59765v-1.4604h0.59765z" fill="#8e8b88"/>
  <path d="m268.03 139.14h-0.59765v-1.4604h0.59765z" fill="#8e8b88"/>
  <g transform="matrix(.39843 0 0 -.381 269.26 145.6)">
   <path d="m0 0c0-3.547-2.874-6.421-6.421-6.421-3.546 0-6.421 2.874-6.421 6.421 0 3.546 2.875 6.421 6.421 6.421 3.547 0 6.421-2.875 6.421-6.421" fill="#dbd6d2"/>
  </g>
  <path d="m265.97 146.33h-0.59765v-1.4608h0.59765z" fill="#8e8b88"/>
  <path d="m268.03 146.33h-0.59765v-1.4608h0.59765z" fill="#8e8b88"/>
 </g>
 <g>
  <g transform="matrix(.39843 0 0 -.381 133.85 116.86)">
   <path d="m0 0h-9.619c-5.155 0-9.334-3.108-9.334-6.943v-3.224h28.286v3.224c0 3.835-4.179 6.943-9.333 6.943" fill="#3c2a42"/>
  </g>
  <g>
   <path d="m191.65 118.24h36.39v2.4132h-36.39z" fill="#3c2a42"/>
   <g transform="matrix(.39869 0 0 -.45522 196.18 75.024)" fill="#b3b3b3">
    <path d="m0 0h-134.67c-3.129 0-5.666-2.537-5.666-5.667v-72c0-3.129 2.537-5.666 5.666-5.666h134.67c3.129 0 5.667 2.537 5.667 5.666v72c0 3.13-2.538 5.667-5.667 5.667" fill="#b3b3b3"/>
   </g>
   <g>
    <path d="m174.25 120.62h-9.8344v-7.7472h9.8344z" fill="#d6d6d6"/>
    <path d="m177.86 120.62h-17.049v-2.4132h17.049z" fill="#d6d6d6"/>
    <path d="m196.59 109.4h-54.504v-30.659h54.504z" fill="#fffffc"/>
   </g>
  </g>
 </g>
 <path transform="matrix(.5767 0 0 .5767 202.87 -72.483)" d="m-129.43 284.61s-0.16904-0.96807-1.078-1.366l0.98674-0.50719s1e-3 -0.12505-0.49618-0.96931c-0.49763-0.84427 0.48231 0.0769 1.0567 0.72693 0 0-0.19224-1.3938-1.1669-1.6834 0 0-0.10039-0.36399-0.19705-0.80647-0.0967-0.44247 1.2105 0.51923 1.4043 1.5633 0 0 0.78164-1.2052-2.0002-2.3687 0 0-0.25441-0.82287-1.6275-1.3112 0 0 0.0694-0.47153-0.24489-1.0031 0 0 0.23794-0.43761 0.59377 0.0921 0 0-0.43354-1.2333-0.96879-1.3561 0 0 0.10242-0.49541 0.76526-0.20515 0 0 1.6472-0.19919-3.694-3.9152 0 0-0.71349-0.79832-0.97109-1.4363 0 0 1.0263-0.36727 1.6135-0.0987 0 0-0.50609-0.88272-1.972-1.1142 0 0 0.23269-0.44092-1.2065-1.4702 0 0-0.88421-0.38963-2.4736-1.994 0 0-0.89343-1.6175-2.76-1.3991 0 0 1.1478-1.2365-0.38219-1.3001 0 0-1.4028-0.17823-3.4272 0.0717 0 0-0.53766-1.4955-2.4311-1.9964 0 0 1.6439 0.83542 1.6 1.9861 0 0-0.39533-0.75372-1.6497-0.79906 0 0 1.2305 0.63621 1.1877 1.2212 0 0-1.8542-1.5919-5.6842 0.14157 0 0 3.1259-0.85329 4.7026 0.67872 0 0-1.9107-1.5459-5.248 0.68766 0 0 2.5179-1.0086 3.3484-0.13068 0 0-1.4939-0.19789-3.7986 1.3188 0 0-0.81208-0.42993-2.3535 1.2958 0 0-2.2905 0.82634-3.1032 4.1554 0 0-2.2759 3.2667-2.1868 4.9806 0 0 0.0158 1.7853-0.63708 3.9133 0 0-0.69233 2.0569-1.6643 3.8068 0 0-0.11201 0.15811 0.3255 0.65099l-0.54281 0.63211s0.31449 0.48364 1.0788 0.8463c0 0 1.7342-0.0193 4.5946-2.3314 0 0 0.11858-4.3746 3.9541-5.8256l0.40357 0.0112s3.5683-5.2091 4.9246 0.65716c0 0 0.46597 1.3761 0.31261 3.6366 0 0 2.0366-0.29282 3.3672 0.86587 0 0 1.8108-2.6338 3.6972-0.50597 0 0 1.0021 1.8802 3.738 1.6404 0 0 2.3048-0.8326 2.9293 1.4917 0 0 0.44753 0.46833-0.6875 2.7404 0 0 1.5602-1.8266 4.9585-2.6136 0 0 1.1734 0.24389 2.4248-0.96155 0 0-0.10869-0.33292 0.6851-0.34387z" fill="#333333" filter="url(#filter2026)"/>
 <path d="m123.58 93.909s-0.0709 0.57847-0.48756 1.2112c0 0-2e-3 0.07188-0.45649 0.16958 0 0-0.295-0.03368-0.68522 0.33112 0 0-0.17786 0.24748-0.252 0.90245 0 0-0.0223 0.38024-0.26356 1.0908 0 0-0.21067 1.0684-0.56671 1.5702 0 0-0.2122 0.28023-0.91318 0.02878 0 0-0.32358-0.27038-0.74164-0.37411 0 0 0.0301 1.1211-0.48007 1.2708 0 0-0.13243 0.1963-0.87701 0.29031 0 0 0.20636 0.88518-0.64594 1.0604 0 0-0.76551-0.0735-1.0365 1.1339 0 0-1.1758 1.8587-3.0273-0.049 0 0-0.60655-0.53181-1.1358-1.3395 0 0 0.26909 0.55679-0.52499 0.73559 0 0-0.85596 0.0251-1.1974 0.43137 0 0-0.67855-1.3016-2.047-3.0564 0 0 0.17665-2.1075-1.8777-6.1845l0.88841-1.0838s0.13981 0.25215 0.62211 0.48806c0 0 1.1786-0.10419 2.6497-1.3445 0 0-0.0444-2.3988 2.2803-3.3596l0.23274 0.0065s2.8625-4.0673 3.0203 2.4762c0 0 1.0072-0.25413 1.9418 0.49934 0 0 1.0689-1.5562 2.1322-0.2918 0 0 0.58344 1.0435 2.1557 0.946 0 0 1.2588-0.50759 1.6893 0.86023 0 0 0.21306 0.32111-0.39647 1.5804z" fill="#ffbf94"/>
 <path d="m113.15 102.55s1.2007 2.5412 0.80443 4.1172c0 0 0.21246 0.11733 1.1516-0.34112 0 0 0.53941 1.1809 0.47698 1.4791 0 0 2.5594-0.13746 3.6376 1.9965 0 0 1.3606 0.5597 1.8999 1.0407 0 0 0.29228 0.79934-0.31717 2.127 0 0-0.5431 1.925-0.93071 2.5246 0 0-1.8586-0.0832-6.3111-0.99529l-0.25619-0.0149s-1.9443-0.16327-4.7969-0.76641c0 0-7.4714-2.3521-5.7585 4.9592l0.0964 0.29656s-9e-3 2.1758 3.0705 3.0463c0 0-0.23268 3.8531-3.1953 11.837 0 0-1.9686 3.0923-7.0869 4.059 0 0-5.8656 7.0736-13.86 7.6123 0 0-3.5154-2.5655-1.1237-19.545 0 0 4.1941-19.784 14.833-32.28 0 0 2.8865-1.4796 5.8745-0.35564 0 0 1.0015-0.65137 2.5379-1.0568 0 0 1.0571-1.1393 1.7642-0.14646 0.70711 0.99289 1.8722 2.4752 2.5848 7.1774 0 0 1.2584 1.7043 2.047 3.0564 0 0 2.4924-0.38674 1.7224-1.167-0.77002-0.78022 1.1358 1.3394 1.1358 1.3394z" fill="#ffffff" stroke="#1a1a1a" stroke-width=".4579"/>
 <g fill="none">
  <path d="m110.34 114s0.4722-1.4626-1.3498-2.8669c0 0 0.34411-0.77287-1.0413-2.6379 0 0 1.0086-14.088-4.9169-13.577 0 0-7.2638 0.31639-5.0201 9.7893 0 0 0.0818 6.9281 1.2147 10.479 0 0 0.61793 0.90574 1.8491 1.6347 0 0-0.4238-2.7544 0.63951-4.5343 0 0 5.1568-2.4532 6.9862-0.3951" stroke="#1a1a1a" stroke-width=".45775"/>
  <path d="m109.09 113.2s-3.1481-1.54-5.4432-0.38996-2.5654 4.0109-2.5654 4.0109-0.33601 3.1765 4.837 5.1905" stroke="#9e0e0e" stroke-width=".30517"/>
  <path d="m108.99 111.14s1.6119 2.5396 4.5671 3.3579" stroke="#1a1a1a" stroke-width=".30517"/>
  <path d="m99.228 115.19s-3.8033 13.28-3.5962 22.721" stroke="#1a1a1a" stroke-width=".45775"/>
 </g>
 <g>
  <path d="m113.56 114.49s4.495 1.2238 16.224 1.6977c0 0 0.40893 0.0915 2.1053-0.99725 0 0 3.0385-3.0154 4.1082-1.1102 0 0 1.1356 0.70735 0.81358 1.5022 0 0 1.454 0.90926 0.94723 1.947 0 0 0.61915 0.29972 0.44324 1.5762 0 0 0.5168 1.0868-0.48775 1.6393 0 0-5.839 1.362-12.74 0.67894 0 0-10.076 0.48285-19.058 0.58687 0 0-4.4692-0.91593-3.0752-6.9584 0 0-0.49069-2.792 10.72-0.56238z" fill="#ffbf94"/>
  <path d="m121.12 110.84s4.3402 2.1863 7.0303 5.1795c0 0-3.2327-0.0343-8.2782-0.52796 0 0 1.0834-1.7532 1.2479-4.6515z" fill="#ffaf7b"/>
  <path d="m81.771 145.52s0.53126 2.0473 4.2822 1.9725h16.552s8.9586-0.1088 12.245 1.6002c0 0 3.693-2.6268 5.3635 1.4071l9.1473 19.306s5.4719 1.2254 9.4333-3.6317l-6.5807-15.532s3.3639-4.331-3.6519-8.5162l-25.844-8.2778s-2.0407 3.0108-7.0869 4.059c0 0-5.8814 7.197-13.86 7.6123" fill="#333333"/>
  <ellipse cx="147.71" cy="179.71" rx="13.221" ry="4.3374" fill="#954242" opacity=".68463"/>
 </g>
 <path d="m137.87 167.08s3.4724 7.5855 9.2923 7.5627c0 0 10.772 0.82812 11.637 2.7346 0 0 0.33798 0.45184-0.0799 1.1182 0 0 0.66634 1.1104-0.29069 1.3264 0 0 0.15167 1.3619-1.755 1.0919 0 0 3e-3 0.64998-0.78359 0.34603 0 0 0.10323 0.62133-0.513 0.55009 0 0-1.2786-0.40438-1.9865-0.23337-0.70791 0.17101-1.4786 0.68244-1.8394 1.0264s-9.7273-0.58891-13.189-1.0457c0 0-0.65375 0.28661-2.0961-1.6223 0 0-0.4695-0.74499-0.50563-3.683 0 0-0.55741-2.3821-2.2818-3.5128l-2.1191-2.7957s2.9898 0.35039 6.5109-2.8635z" fill="none"/>
 <path d="m131.36 169.94s2.7782 2.8008 4.4009 6.3086c0 0 0.33426 0.47227 0.33423 1.5185 0 0-0.30843 1.3834 0.65509 2.4052 0 0 0.65815 1.2234 6.6686 1.7711 0 0 3.7787 0.48086 8.6507 0.51272 0 0 1.681-0.0815 3.3086-0.6497 1.6276-0.56822 2.8214-1.3928 2.8214-1.3928s0.92085-0.75861 0.72087-1.3401c0 0 0.0733 0.0306-0.19997-0.58149 0 0 0.51547-0.2182 0.0799-1.1182 0 0 0.25458-0.77399-3.7257-1.3896 0 0-1.1794-0.78828-5.1018-0.64436 0 0-1.3071 0.44096-5.7758-1.1878 0 0-2.8473-0.83994-6.326-7.0756 0 0-1.41 2.4946-6.5109 2.8635" fill="#ffbf94"/>
 <g transform="matrix(.39843 0 0 -.381 130.57 184)" fill="#210303" fill-opacity=".29769">
  <path d="m0 0c0-7.597-34.519-13.755-77.101-13.755-42.581 0-77.1 6.158-77.1 13.755s34.519 13.755 77.1 13.755c42.582 0 77.101-6.158 77.101-13.755" fill="#210303" fill-opacity=".29769"/>
 </g>
 <g transform="matrix(.39843 0 0 -.381 82.212 144.88)">
  <path d="m0 0s-1.309-8.72 12.691-10.72 48.884-1.609 61.134 0.783c10.345 2.021 8.75 11.516 8.75 11.516z" fill="#a08282"/>
 </g>
 <g transform="matrix(.39843 0 0 -.381 96.565 151.5)">
  <path d="m0 0v-50.808c0-6.434 10-6.445 10 0v50.808c0 6.435-10 6.445-10 0" fill="#c4a2a1"/>
 </g>
 <g transform="matrix(.39843 0 0 -.381 101 167.25)" fill="#079498">
  <g fill="#079498">
   <g transform="translate(-7.9297 -9.9639)">
    <path d="m0 0c-10.641-3.109-20.945-7.333-30.62-12.76-6.687-3.751-10.727-8.133-9.059-16.255 0.971-4.724 8.201-2.725 7.232 1.994-1.29 6.283 7.476 8.918 11.955 11.131 7.231 3.573 14.749 6.397 22.486 8.659 4.623 1.35 2.656 8.59-1.994 7.231" fill="#079498"/>
   </g>
   <g transform="translate(-5.7695 -16.8)">
    <path d="m0 0c8.22-1.629 16.227-4.723 24.034-7.699 5.115-1.949 16.458-4.228 15.375-11.71-0.683-4.722 6.542-6.76 7.232-1.994 1.574 10.876-5.761 14.977-14.395 18.492-9.744 3.968-19.899 8.092-30.252 10.143-4.714 0.934-6.732-6.293-1.994-7.232" fill="#079498"/>
   </g>
   <g transform="translate(-8.0108 -15.076)">
    <path d="m0 0c3.144-4.518 6.521-8.862 9.837-13.253 3.361-4.448 5.109-6.89 4.733-12.877-0.302-4.82 7.199-4.802 7.5 0 0.777 12.382-9.003 20.444-15.594 29.915-2.738 3.935-9.242 0.19-6.476-3.785" fill="#079498"/>
   </g>
   <g transform="translate(-36.992 -37.982)">
    <path d="m0 0c0-3.865-3.134-7-7-7s-7 3.135-7 7c0 3.866 3.134 7 7 7s7-3.134 7-7" fill="#079498"/>
   </g>
   <g transform="translate(44.255 -37.206)">
    <path d="m0 0c0-3.866-3.134-7-7-7s-7 3.134-7 7 3.134 7 7 7 7-3.134 7-7" fill="#079498"/>
   </g>
   <g transform="translate(17.309 -41.206)">
    <path d="m0 0c0-3.866-3.134-7-7-7s-7 3.134-7 7 3.134 7 7 7 7-3.134 7-7" fill="#079498"/>
   </g>
   <path d="m0 0h-11.79c-0.38 0-0.689-0.309-0.689-0.689v-15.742h13.167v15.742c0 0.38-0.308 0.689-0.688 0.689"/>
  </g>
 </g>
 <g transform="matrix(.39843 0 0 -.381 98.557 151.86)">
  <path d="m 0,0 c 13.436,0 13.106,5.684 13.436,8.291 l -27.075,0.1 C -14.025,3.15 -11.199,0 0,0" fill="#a08282"/>
 </g>
 <g>
  <g transform="matrix(.39843 0 0 -.381 100.74 146.6)" fill="#079498">
   <path d="m0 0-62.92 1.681c-13.39 0.519-22.9 4.409-25.71 17.509-6.59 30.73-16.89 88.161-18 96.621-2 15.329 8.46 14.809 8.46 14.809h62.25s4.08-64.99 11.88-98.569c1.53-6.631 3.22-12.04 5.04-15.481 4.65-8.78 19-16.57 19-16.57" fill="#079498"/>
  </g>
  <g transform="matrix(.39843 0 0 -.381 91.159 134.39)" fill="#06bcc1">
   <path d="m0 0c-1.95-0.261-3.93-0.311-5.89-0.221-16.96 0.811-32.09 12.26-41.06 26.681-8.97 14.409-12.61 31.489-14.67 48.35-0.97 7.89-1.62 15.819-1.96 23.759h51.7s4.08-64.99 11.88-98.569" fill="#06bcc1"/>
  </g>
  <g transform="matrix(.39843 0 0 -.381 83.327 100.47)" fill="#07e1e7">
   <path d="m0 0c0.785-7.557 7.255-104.04 26.18-116 4.811-3.04 8.386-4.828 17.515-5.072 23.58-0.63 55.956-0.165 64.833 1.992 7.555 1.836 5.555 16.499-4.881 15.832-15.659-1-59.983-3.874-66.952 2.75-9.167 8.713-15.331 39.5-20.667 103.33-0.417 4.994-4.75 7.245-8.249 6.713-5.373-0.818-8.365-3.901-7.779-9.546" fill="#07e1e7"/>
  </g>
  <g transform="matrix(.39843 0 0 -.381 91.839 129.71)" fill="#079498">
   <path d="m0 0c9.087-0.057 18.175-0.113 27.262-0.169 8.773-0.055 17.892 0.538 26.604-0.645 17.563-2.387 21.75-17.916 24.342-33.055 0.65-3.798 6.434-2.188 5.786 1.596-2.555 14.922-7.127 31.4-23.405 36.184-8.777 2.579-18.458 1.827-27.485 1.884l-33.104 0.205c-3.861 0.023-3.866-5.976 0-6" fill="#079498"/>
  </g>
  <g transform="matrix(.39843 0 0 -.381 97.565 126.64)" fill="#079498">
   <path d="m0 0c-1.957-2.477-1.84-10.221 2.374-11.149 8.18-1.802 31.585-1.53 35.585-0.864 4 0.667 2.756 9.703 0 11.203-3.749 2.041-36.488 2.671-37.959 0.81" fill="#079498"/>
  </g>
 </g>
</svg>
