<?xml version="1.0" encoding="UTF-8" standalone="no"?>
<svg
   xmlns:dc="http://purl.org/dc/elements/1.1/"
   xmlns:cc="http://creativecommons.org/ns#"
   xmlns:rdf="http://www.w3.org/1999/02/22-rdf-syntax-ns#"
   xmlns:svg="http://www.w3.org/2000/svg"
   xmlns="http://www.w3.org/2000/svg"
   xmlns:sodipodi="http://sodipodi.sourceforge.net/DTD/sodipodi-0.dtd"
   xmlns:inkscape="http://www.inkscape.org/namespaces/inkscape"
   width="110mm"
   height="297mm"
   viewBox="0 0 110 297"
   version="1.1"
   id="svg8"
   inkscape:version="1.0.2 (e86c870879, 2021-01-15)"
   sodipodi:docname="me-standing.svg">
  <defs
     id="defs2" />
  <sodipodi:namedview
     id="base"
     pagecolor="#0e0e0e"
     bordercolor="#666666"
     borderopacity="1.0"
     inkscape:pageopacity="0"
     inkscape:pageshadow="2"
     inkscape:zoom="0.35"
     inkscape:cx="697.29924"
     inkscape:cy="527.00121"
     inkscape:document-units="mm"
     inkscape:current-layer="layer3"
     inkscape:document-rotation="0"
     showgrid="false"
     inkscape:window-width="1366"
     inkscape:window-height="709"
     inkscape:window-x="0"
     inkscape:window-y="31"
     inkscape:window-maximized="1" />
  <metadata
     id="metadata5">
    <rdf:RDF>
      <cc:Work
         rdf:about="">
        <dc:format>image/svg+xml</dc:format>
        <dc:type
           rdf:resource="http://purl.org/dc/dcmitype/StillImage" />
        <dc:title></dc:title>
      </cc:Work>
    </rdf:RDF>
  </metadata>
  <g
     inkscape:groupmode="layer"
     id="layer6"
     inkscape:label="shoes">
    <path
       style="fill:#950000;stroke:none;stroke-width:0.295404px;stroke-linecap:butt;stroke-linejoin:miter;stroke-opacity:1;fill-opacity:1"
       d="m 56.775964,271.86963 c 0,0 -8.17068,4.59759 -1.20552,12.00858 0,0 3.8785,2.02717 5.39062,8.97875 0,0 1.322,3.77518 6.72191,3.78064 5.3999,0.006 5.3999,0.006 5.3999,0.006 0,0 2.71575,-0.71092 1.39442,-6.70574 0,0 1.51111,-7.91589 -0.30996,-9.52794 -1.82108,-1.61205 -1.82108,-1.61205 -1.82108,-1.61205"
       id="path918" />
    <path
       style="fill:#950000;stroke:none;stroke-width:0.295404px;stroke-linecap:butt;stroke-linejoin:miter;stroke-opacity:1;fill-opacity:1"
       d="m 25.234738,264.29274 c 0,0 -5.535946,2.04439 -9.441262,4.92414 0,0 -7.1719873,-3.1472 -9.0505063,0.91804 -1.878517,4.06524 4.1859633,10.98947 4.1859633,10.98947 0,0 7.820471,5.76253 22.725063,8.65496 0,0 9.742042,2.12121 7.575674,-3.65575 0,0 0.807958,-4.0707 0.416082,-7.08123 0,0 1.272998,-1.83105 -0.886292,-3.97076 -2.159301,-2.13971 -1.106396,-2.22888 -1.106396,-2.22888"
       id="path916" />
  </g>
  <g
     inkscape:groupmode="layer"
     id="layer5"
     inkscape:label="trouser">
    <path
       style="fill:#950000;stroke:none;stroke-width:0.295404px;stroke-linecap:butt;stroke-linejoin:miter;stroke-opacity:1;fill-opacity:1"
       d="m 27.692405,173.2087 c 0,0 -2.725212,12.75899 -1.538664,18.55407 0,0 -2.994652,9.50698 -1.273364,13.74402 0,0 -0.807766,4.60114 0.01353,6.57131 0,0 -1.479249,2.93861 -0.480324,7.5926 0,0 0.913023,13.94002 0.754477,17.20109 0,0 -1.878553,13.7148 0.412447,17.33371 2.290996,3.61891 0.315158,8.42606 0.315158,8.42606 l -1.160771,3.06227 c 0,0 -3.564946,11.37802 6.303022,9.48665 9.86797,-1.89137 11.614516,-2.77311 11.614516,-2.77311 0,0 1.737759,-0.451 -2.343231,-4.1557 0,0 7.676621,-8.42356 0.67763,-13.65872 0,0 -1.07002,-2.15267 2.231549,-10.5158 0,0 1.276493,-8.07033 0.536149,-27.85116 0,0 0.98845,-4.27737 -0.732193,-8.14679 0,0 0.458274,0.72418 2.504988,-6.75685 0,0 2.794349,0.0442 3.44804,-11.57574 0,0 2.29085,-2.86703 8.55245,-15.56419 0,0 2.71167,19.555 3.65837,35.24743 0.94672,15.69242 -0.0273,32.91689 -0.0273,32.91689 0,0 -2.12463,11.49289 -0.9847,15.7005 0,0 -2.51821,3.19342 -1.3422,9.49679 0,0 -1.48071,1.29807 -1.88954,4.75522 0,0 -1.16352,9.2231 6.61206,6.25237 0,0 5.02262,-1.79182 8.7918,0.24569 0,0 2.73883,-4.90755 4.06923,-13.20244 0,0 4.62735,-9.40897 4.78064,-19.98978 0.15328,-10.58081 2.55113,-25.48393 -0.45654,-37.78243 0,0 3.8423,-7.60305 -0.57247,-14.51201 0,0 1.80343,-21.5993 8.19676,-30.88216 0,0 2.33281,-4.57797 2.33281,-8.87476"
       id="path913" />
    <path
       style="fill:#950000;stroke:none;stroke-width:0.264583px;stroke-linecap:butt;stroke-linejoin:miter;stroke-opacity:1;fill-opacity:1"
       d="m 90.696734,153.55373 -52.940217,16.51634 c 0,0 -2.279422,-2.58124 0.306724,-10.12323 0,0 0.992336,-2.18513 -7.94e-4,-7.7189 0,0 6.007238,7.95272 52.634317,1.32579"
       id="path970" />
  </g>
  <g
     inkscape:groupmode="layer"
     id="layer4"
     inkscape:label="hands">
    <path
       style="fill:#950000;stroke:none;stroke-width:0.295404px;stroke-linecap:butt;stroke-linejoin:miter;stroke-opacity:1;fill-opacity:1"
       d="m 39.499949,108.32648 c 0,0 -6.216425,26.33873 -9.907556,41.56226 0,0 -5.100984,13.74411 -1.72084,23.02856 0,0 1.186058,3.31936 6.479479,4.1532 0,0 1.047807,0.24646 0.837673,-1.18999 0,0 3.01375,0.49555 3.047289,-2.02556 0,0 1.057326,-0.87171 1.00081,-1.93258 0,0 -4.467174,-3.27053 -1.653029,-10.06302 0,0 1.31298,-3.43577 0.478605,-9.63141"
       id="path908" />
    <path
       style="fill:#950000;stroke:none;stroke-width:0.295404px;stroke-linecap:butt;stroke-linejoin:miter;stroke-opacity:1;fill-opacity:1"
       d="m 101.81879,108.64546 c 0,0 0.75405,3.75572 -1.55258,11.26069 -2.306636,7.50496 -5.639126,17.98811 -5.639126,17.98811"
       id="path910" />
    <path
       style="fill:#950000;stroke:none;stroke-width:0.264583px;stroke-linecap:butt;stroke-linejoin:miter;stroke-opacity:1;fill-opacity:1"
       d="m 39.499987,108.32648 -1.222478,39.89241 c 0,0 10.320065,-13.64052 15.787505,-36.32844 0,0 -8.962959,-1.15369 -14.565027,-3.56397"
       id="path972" />
    <path
       style="fill:#950000;stroke:none;stroke-width:0.264583px;stroke-linecap:butt;stroke-linejoin:miter;stroke-opacity:1;fill-opacity:1"
       d="m 94.613194,108.0285 c 0,0 2.41097,0.61817 7.205596,0.61696 l -7.191706,29.2488 c 0,0 -1.72053,-16.82959 -0.0139,-29.86576"
       id="path974" />
  </g>
  <g
     inkscape:groupmode="layer"
     id="layer2"
     inkscape:label="t-shirt">
    <path
       style="fill:#950000;stroke:none;stroke-width:0.295404px;stroke-linecap:butt;stroke-linejoin:miter;stroke-opacity:1;fill-opacity:1"
       d="m 58.400964,45.859633 c 0,0 0.52523,0.560816 -1.24402,1.639128 0,0 -5.0856,1.409599 -6.87379,3.447426 0,0 -1.02761,0.926387 -1.45809,2.157309 0,0 -5.629146,0.207411 -7.138951,6.075664 0,0 -0.34437,3.693239 0.0786,9.420561 0,0 0.236584,1.876807 -0.333227,3.896238 -0.569811,2.019429 -1.274718,5.195557 -0.242613,8.992328 0,0 0.212546,0.202196 0.07704,0.867866 0,0 -0.718394,2.281481 -0.07536,3.818282 0,0 -0.219904,1.281721 -0.0022,1.902681 0,0 -1.023821,2.74535 0.26674,4.49168 0,0 -2.307258,5.18844 0.609659,5.875427 0,0 -1.997622,1.775867 -0.378691,2.868607 0,0 -0.244165,3.4231 -2.186074,7.01365 0,0 6.68931,1.95097 14.565067,3.56397 0,0 -2.34267,13.37031 -9.065108,24.84938 -6.722436,11.47906 -6.722436,11.47906 -6.722436,11.47906 0,0 -0.757292,2.11789 -0.215092,4.00905 0,0 5.690019,8.36833 56.694786,0.9177 0,0 1.94043,-8.8199 -0.69685,-21.02403 0,0 -0.73449,-8.04619 0.55284,-24.09311 0,0 2.12761,0.51611 7.205636,0.61696 0,0 -0.33845,-3.58217 -1.26632,-5.60312 0,0 1.07985,-0.80841 0.12863,-2.06361 0,0 0.38311,-2.602467 0.0165,-4.569609 0,0 -0.785286,-1.891076 0.25953,-3.984072 1.04482,-2.092996 0.0505,-3.183344 0.0505,-3.183344 0,0 -0.50178,-1.070221 0.5983,-1.914671 0,0 -0.73725,-1.227449 1.34616,-3.170299 0,0 1.65764,-3.545397 -3.293116,-5.269486 0,0 -0.84157,-0.716232 0.0815,-3.11514 0,0 0.0664,0.03733 -0.51521,-1.549541 -0.58163,-1.58687 -0.62911,-5.748486 -0.62911,-5.748486 0,0 -0.99386,-3.535249 -4.76986,-6.061577 0,0 -4.7278,-10.180709 -13.22557,-15.852572 0,0 0.53934,-2.588956 -3.8867,-5.719615 0,0 -3.65401,-1.341308 -9.9373,-1.394626 0,0 -3.00454,1.085806 -4.95726,3.490859 0,0 -3.37571,0.296934 -3.41802,2.923082 z"
       id="path862" />
  </g>
  <g
     inkscape:groupmode="layer"
     id="layer3"
     inkscape:label="head">
    <path
       style="fill:#950000;stroke:none;stroke-width:0.295404px;stroke-linecap:butt;stroke-linejoin:miter;stroke-opacity:1;fill-opacity:1"
       d="m 48.825064,53.103496 c 0,0 11.28266,-2.338407 11.40412,9.939133 0.12148,12.277538 1.70026,14.118144 -2.23196,31.482975 0,0 -0.72185,5.086444 -3.93221,17.364846"
       id="path864" />
    <path
       style="fill:#950000;stroke:none;stroke-width:0.295404px;stroke-linecap:butt;stroke-linejoin:miter;stroke-opacity:1;fill-opacity:1"
       d="m 94.613154,108.0285 c 0,0 2.20651,-18.479064 -0.78687,-45.615995"
       id="path866" />
    <path
       style="fill:#950000;stroke:none;stroke-width:0.295404px;stroke-linecap:butt;stroke-linejoin:miter;stroke-opacity:1;fill-opacity:1"
       d="m 72.155144,54.295643 c 0,0 7.94624,20.660663 -8.46045,44.746438"
       id="path868" />
    <path
       style="fill:#950000;stroke:none;stroke-width:0.295404px;stroke-linecap:butt;stroke-linejoin:miter;stroke-opacity:1;fill-opacity:1"
       d="m 87.356284,77.054844 c 0,0 -0.73427,22.052529 -14.68279,41.168286"
       id="path870" />
    <path
       style="fill:#950000;stroke:none;stroke-width:0.295404px;stroke-linecap:butt;stroke-linejoin:miter;stroke-opacity:1;fill-opacity:1"
       d="m 52.458034,12.819328 c 0,0 -9.323757,1.991311 -6.948851,13.947349 0,0 0.219591,0.387254 -0.45565,0.88348 -0.675253,0.496227 -5.798564,5.938597 -2.553377,6.705112 3.245176,0.766513 2.654363,1.624805 2.654363,1.624805 0,0 -1.120073,2.125994 0.386004,2.755303 0,0 -0.2929,2.408104 1.11305,1.916496 0,0 0.33057,-0.108902 0.321761,-0.557668 0,0 -1.336225,6.065479 3.19376,5.723526 4.53,-0.341958 2.13137,-1.680556 8.23187,0.0419"
       id="path891" />
    <a
       id="a897"
       style="display:inline;opacity:0.679557;fill:#950000;stroke:none;fill-opacity:1"
       transform="matrix(1.116489,0,0,1.116489,-76.643007,-17.921117)">
      <path
         style="fill:#950000;stroke:none;stroke-width:0.264583px;stroke-linecap:butt;stroke-linejoin:miter;stroke-opacity:1;fill-opacity:1"
         d="m 115.63127,27.533137 c 0,0 -0.42272,4.100975 1.53343,5.151024 0,0 4.32225,-0.792665 3.34448,3.217638 0,0 -0.50467,4.124997 -0.36077,5.391483 0.14391,1.266487 0.11627,0.766858 0.11627,0.766858 0,0 1.26873,0.525447 2.18844,0.168762 l 0.46256,-0.102309 c 0,0 -0.36464,-6.199765 2.20254,-6.108081 0,0 0.94259,-2.494312 3.96969,-2.755524 0,0 2.63565,-0.490374 1.66367,5.367705 0,0 -2.49854,6.056146 -5.1797,3.415662"
         id="path895" />
    </a>
    <path
       style="display:inline;opacity:0.679557;fill:#950000;stroke:none;stroke-width:0.295404px;stroke-linecap:butt;stroke-linejoin:miter;stroke-opacity:1;fill-opacity:1"
       d="m 64.407404,33.069109 c 0,0 0.63683,2.353637 -0.15154,3.513406 -0.78838,1.159769 -1.8207,2.052937 -3.38124,6.319098"
       id="path893" />
    <path
       style="fill:#950000;stroke:none;stroke-width:0.295404px;stroke-linecap:butt;stroke-linejoin:miter;stroke-opacity:1;fill-opacity:1"
       d="m 46.890704,16.742011 c 0,0 -5.727979,0.849022 -1.269213,-7.4251038 0,0 -1.466017,1.3392978 -1.779103,2.2950148 0,0 1.124796,-3.7495142 3.740205,-6.0639646 0,0 -0.146428,-1.2076626 -1.193706,-1.6266887 0,0 4.406417,-0.1061112 5.142977,1.0809902 0,0 1.88837,-2.5559883 1.13464,-4.40149217 0,0 3.5194,0.72720837 5.42938,2.27393077 0,0 4.82449,-1.8358283 8.19828,-0.7376006 3.37381,1.0982266 7.09795,5.0769881 7.09795,5.0769881 0,0 2.65582,2.886798 5.62655,7.966495 2.97075,5.0797 -0.65346,15.174965 -0.65346,15.174965 0,0 -0.997,3.821457 -1.32409,7.153116 0,0 -4.7094,-2.047979 -6.49487,-1.138018 0,0 0.25175,-4.094229 -2.44349,-8.382286"
       id="path903" />
    <path
       style="fill:#950000;stroke:none;stroke-width:0.295404px;stroke-linecap:butt;stroke-linejoin:miter;stroke-opacity:1;fill-opacity:1"
       d="m 76.714014,40.840318 c 0,0 -1.09852,-1.280857 -2.07541,-4.397801"
       id="path905" />
    <path
       style="fill:#950000;stroke:none;stroke-width:0.264583px;stroke-linecap:butt;stroke-linejoin:miter;stroke-opacity:1;fill-opacity:1"
       d="m 58.400964,45.859631 -6.94561,-27.80475 22.15816,9.991788 1.02509,8.395848 c 0,0 0.20191,1.852269 2.07541,4.397801 0,0 -4.48604,-1.874893 -9.93725,-1.394626 0,0 -3.49572,0.633669 -4.95726,3.490859 0,0 -3.30418,0.128902 -3.41854,2.92308 z"
       id="path988" />
  </g>
</svg>
