<?xml version="1.0" encoding="UTF-8"?>
<svg width="24mm" height="24mm" version="1.1" viewBox="0 0 24 24" xmlns="http://www.w3.org/2000/svg" xmlns:cc="http://creativecommons.org/ns#" xmlns:dc="http://purl.org/dc/elements/1.1/" xmlns:rdf="http://www.w3.org/1999/02/22-rdf-syntax-ns#">
 <defs>
  <clipPath id="clipPath842">
   <path d="m10.035 15.915s-4.478-0.17128-4.8165-4.4215c0 0-0.71428-2.8669 0.98512-5.0233 0 0-0.57724-1.4225 0.10593-3.2776 0 0 0.84208-0.36313 2.9892 1.2694 0 0 2.3472-0.91263 5.4414 0 0 0 1.7981-1.5122 2.9856-1.2694 0 0 0.64787 1.2769 0.10685 3.2776 0 0 1.5848 1.481 0.97517 5.095-0.60966 3.614-3.2852 4.2344-4.8183 4.3395 0 0 0.58964 0.37384 0.70793 1.8724 0.11828 1.4985 0.0326 3.9792 0.0326 3.9792s-2.6071 0.95955-5.4338-0.0064l0.00523-2.4591s-2.6155 0.80489-3.5766-1.2618c0 0-0.44171-1.4897-1.4409-2.1484 0 0-0.79073-0.70839 0.31272-0.5765 1.1034 0.13188 1.5168 1.1561 1.5168 1.1561s0.98743 2.2385 3.2315 1.1103c0 0 0.085736-1.0615 0.69002-1.6553z" display="none" fill="#f4b860"/>
   <path class="powerclip" d="m-5-5h34v34h-34zm15.035 20.915-7.5e-5 4.2e-5c-0.60429 0.5938-0.69002 1.6553-0.69002 1.6553-2.2441 1.1282-3.2315-1.1103-3.2315-1.1103s-0.41334-1.0242-1.5168-1.1561c-1.1035-0.1319-0.31272 0.5765-0.31272 0.5765 0.99917 0.65873 1.4409 2.1484 1.4409 2.1484 0.96118 2.0667 3.5766 1.2618 3.5766 1.2618l-0.00523 2.4591c2.8267 0.96595 5.4338 0.0064 5.4338 0.0064s0.08568-2.4807-0.0326-3.9792c-0.11828-1.4985-0.70793-1.8724-0.70793-1.8724 1.5331-0.10511 4.2086-0.72558 4.8183-4.3395 0.60965-3.614-0.97517-5.095-0.97517-5.095 0.54102-2.0007-0.10685-3.2776-0.10685-3.2776-1.1875-0.24288-2.9856 1.2694-2.9856 1.2694-3.0942-0.91263-5.4414 0-5.4414 0-2.1471-1.6325-2.9892-1.2694-2.9892-1.2694-0.68318 1.8552-0.10593 3.2776-0.10593 3.2776-1.6994 2.1565-0.98512 5.0233-0.98512 5.0233 0.33851 4.2502 4.8165 4.4215 4.8165 4.4215z" fill="#f4b860"/>
  </clipPath>
 </defs>
 <metadata>
  <rdf:RDF>
   <cc:Work rdf:about="">
    <dc:format>image/svg+xml</dc:format>
    <dc:type rdf:resource="http://purl.org/dc/dcmitype/StillImage"/>
    <dc:title/>
   </cc:Work>
  </rdf:RDF>
 </metadata>
 <path d="m24 12a12 12 0 0 1-12 12 12 12 0 0 1-12-12 12 12 0 0 1 12-12 12 12 0 0 1 12 12z" clip-path="url(#clipPath842)" fill="#fffffc"/>
</svg>
