<?xml version="1.0" encoding="UTF-8" standalone="no"?>
<svg
   xmlns:dc="http://purl.org/dc/elements/1.1/"
   xmlns:cc="http://creativecommons.org/ns#"
   xmlns:rdf="http://www.w3.org/1999/02/22-rdf-syntax-ns#"
   xmlns:svg="http://www.w3.org/2000/svg"
   xmlns="http://www.w3.org/2000/svg"
   xmlns:sodipodi="http://sodipodi.sourceforge.net/DTD/sodipodi-0.dtd"
   xmlns:inkscape="http://www.inkscape.org/namespaces/inkscape"
   width="24mm"
   height="24mm"
   viewBox="0 0 24 24"
   version="1.1"
   id="svg8"
   inkscape:version="1.0.2 (e86c870879, 2021-01-15)"
   sodipodi:docname="github-projectCard Mobile.svg">
  <defs
     id="defs2" />
  <sodipodi:namedview
     id="base"
     pagecolor="#000000"
     bordercolor="#666666"
     borderopacity="1.0"
     inkscape:pageopacity="0"
     inkscape:pageshadow="2"
     inkscape:zoom="3.959798"
     inkscape:cx="31.726952"
     inkscape:cy="47.860905"
     inkscape:document-units="mm"
     inkscape:current-layer="layer1"
     inkscape:document-rotation="0"
     showgrid="false"
     inkscape:window-width="1366"
     inkscape:window-height="737"
     inkscape:window-x="0"
     inkscape:window-y="31"
     inkscape:window-maximized="0" />
  <metadata
     id="metadata5">
    <rdf:RDF>
      <cc:Work
         rdf:about="">
        <dc:format>image/svg+xml</dc:format>
        <dc:type
           rdf:resource="http://purl.org/dc/dcmitype/StillImage" />
        <dc:title />
      </cc:Work>
    </rdf:RDF>
  </metadata>
  <g
     inkscape:label="Layer 1"
     inkscape:groupmode="layer"
     id="layer1">
    <circle
       style="fill:#fffffc;fill-opacity:1;stroke:none;stroke-width:0.868836;stroke-linejoin:round"
       id="path833"
       cx="12"
       cy="12"
       r="12" />
    <path
       style="fill:#f4b860;fill-opacity:1;stroke:none;stroke-width:0.954711px;stroke-linecap:butt;stroke-linejoin:miter;stroke-opacity:1"
       d="m 10.035157,15.91482 c 0,0 -4.4779527,-0.171281 -4.8164584,-4.4215 0,0 -0.7142758,-2.8668907 0.9851182,-5.023348 0,0 -0.5772416,-1.4224746 0.1059341,-3.2776261 0,0 0.8420807,-0.3631269 2.9891897,1.2693577 0,0 2.3471704,-0.9126345 5.4413934,0 0,0 1.798055,-1.51224 2.985566,-1.2693577 0,0 0.647866,1.2769221 0.106846,3.2776261 0,0 1.58482,1.481017 0.975167,5.094982 -0.609656,3.613963 -3.28516,4.234436 -4.818282,4.339546 0,0 0.589644,0.373837 0.707926,1.872367 0.118276,1.498517 0.0326,3.979187 0.0326,3.979187 0,0 -2.607118,0.959549 -5.4338082,-0.0064 l 0.00523,-2.459127 c 0,0 -2.6154604,0.804888 -3.5766391,-1.261841 0,0 -0.4417116,-1.489674 -1.4408843,-2.1484 0,0 -0.7907336,-0.708393 0.3127183,-0.576497 1.1034376,0.131882 1.5167739,1.156107 1.5167739,1.156107 0,0 0.987429,2.238542 3.2315126,1.110293 0,0 0.085736,-1.061525 0.6900218,-1.655327 z"
       id="path851" />
  </g>
</svg>
