<?xml version="1.0" encoding="UTF-8"?>
<svg width="64" height="64" aria-describedby="desc" aria-labelledby="title" role="img" version="1.1" viewBox="0 0 64 64" xmlns="http://www.w3.org/2000/svg" xmlns:cc="http://creativecommons.org/ns#" xmlns:dc="http://purl.org/dc/elements/1.1/" xmlns:rdf="http://www.w3.org/1999/02/22-rdf-syntax-ns#">
 <metadata>
  <rdf:RDF>
   <cc:Work rdf:about="">
    <dc:format>image/svg+xml</dc:format>
    <dc:type rdf:resource="http://purl.org/dc/dcmitype/StillImage"/>
    <dc:title>Grab Hand</dc:title>
   </cc:Work>
  </rdf:RDF>
 </metadata>
 <title>Grab Hand</title>
 <desc>A line styled icon from Orion Icon Library.</desc>
 <g fill="none" stroke="#ffffff" stroke-linecap="round" stroke-linejoin="round" stroke-miterlimit="10" stroke-width="2">
  <path d="m20 33.416v-17.416a4 4 0 0 1 4-4 4 4 0 0 1 4 4v4" data-name="layer1"/>
  <path d="m20 32a4 4 0 0 0-4-4 4 4 0 0 0-4 4v4c0 6 6.187 13.189 6.187 13.189 2.442 2.811 5.04 4.811 8.551 4.811h15.262a10 10 0 0 0 10-10v-8m-16-14v-8a4 4 0 0 0-4-4 4 4 0 0 0-4 4v2m8 0a4 4 0 0 1 4-4 4 4 0 0 1 4 4v8" data-name="layer1"/>
  <path d="m44 20a4 4 0 0 1 4-4 4 4 0 0 1 4 4v22" data-name="layer1"/>
 </g>
</svg>
