<?xml version="1.0" encoding="UTF-8"?>
<svg width="24mm" height="24mm" version="1.1" viewBox="0 0 24 24" xmlns="http://www.w3.org/2000/svg" xmlns:cc="http://creativecommons.org/ns#" xmlns:dc="http://purl.org/dc/elements/1.1/" xmlns:rdf="http://www.w3.org/1999/02/22-rdf-syntax-ns#">
 <defs>
  <clipPath id="clipPath834">
   <path d="m12 3.2526c-4.8308 0-8.7474 3.9167-8.7474 8.7474 0 4.8308 3.9167 8.7474 8.7474 8.7474 4.8308 0 8.7474-3.9167 8.7474-8.7474 0-4.8308-3.9167-8.7474-8.7474-8.7474zm0.72895 11.705v-2.2284h2.1825c-0.04301 0.8332-0.15453 1.6329-0.3324 2.3902-0.59993-0.08748-1.2203-0.13704-1.8501-0.16184zm1.4266 1.576c-0.36375 0.96951-0.84486 1.8202-1.4266 2.5193v-2.6388c0.48548 0.02039 0.96149 0.05904 1.4266 0.11954zm-1.4266-5.2623v-2.1978c0.63273-0.024797 1.2545-0.075076 1.8574-0.1633 0.17349 0.74864 0.28356 1.5388 0.32511 2.3611zm0-3.655v-2.6687c0.58754 0.70636 1.0723 1.5672 1.4368 2.5484-0.46799 0.061218-0.94764 0.099872-1.4368 0.12029zm1.9704-2.3815c0.90172 0.36156 1.716 0.89516 2.3983 1.5643-0.46799 0.17057-0.95566 0.3222-1.4718 0.44247-0.25077-0.72312-0.56494-1.3923-0.9265-2.0068zm-5.2784 9.8846c-0.17787-0.75738-0.29012-1.557-0.3324-2.3902h2.1825v2.2284c-0.63055 0.0248-1.2494 0.07436-1.8501 0.16184zm1.8501 1.2946v2.6388c-0.58171-0.69907-1.0628-1.5498-1.4266-2.5193 0.46507-0.060502 0.94108-0.099128 1.4266-0.11955zm-2.1825-5.1428c0.041547-0.82226 0.1509-1.6124 0.32511-2.3611 0.60285 0.088218 1.2246 0.1385 1.8574 0.16329v2.1978zm0.74645-3.7752c0.36448-0.98117 0.84923-1.8421 1.436-2.5484v2.6687c-0.48913-0.020389-0.96878-0.059042-1.436-0.12029zm-1.4616-0.25512c-0.5161-0.12029-1.0038-0.2719-1.471-0.44249 0.68303-0.66918 1.4965-1.2028 2.3983-1.5643-0.36156 0.61524-0.67574 1.2844-0.92723 2.0068zm-0.4002 1.3981c-0.19244 0.83903-0.31637 1.7203-0.35865 2.6323h-2.867c0.12028-1.2086 0.5387-2.3305 1.1787-3.2934 0.64148 0.26317 1.3238 0.4884 2.0469 0.66116zm0.00661 6.7516c-0.72021 0.17203-1.3996 0.39509-2.0389 0.65606-0.64877-0.96806-1.0723-2.0987-1.1933-3.3175h2.8677c0.042291 0.92213 0.16839 1.8136 0.36448 2.6614zm0.40311 1.3974c0.24931 0.71146 0.55984 1.3712 0.9163 1.9769-0.89151-0.35718-1.6955-0.88276-2.3735-1.5417 0.46361-0.16693 0.94691-0.3171 1.4572-0.43519zm7.2341 0c0.51027 0.11883 0.99284 0.26752 1.4572 0.43519-0.67866 0.65824-1.4827 1.1846-2.3742 1.5425 0.35646-0.60649 0.66699-1.2662 0.91702-1.9777zm0.40312-1.3974c0.19682-0.84777 0.3222-1.7393 0.3652-2.6614h2.8677c-0.12175 1.2188-0.54526 2.3494-1.194 3.3175-0.63929-0.26096-1.3194-0.48402-2.0389-0.65606zm0.3652-4.1193c-0.04226-0.91192-0.16693-1.7932-0.35864-2.6323 0.72312-0.17277 1.4062-0.39801 2.0476-0.66116 0.63929 0.96295 1.0577 2.0848 1.178 3.2934z" display="none" fill="#f4b860"/>
   <path class="powerclip" d="m-5-5h34v34h-34zm17 8.2526c-4.8308 0-8.7474 3.9167-8.7474 8.7474 0 4.8308 3.9167 8.7474 8.7474 8.7474 4.8308 0 8.7474-3.9167 8.7474-8.7474 0-4.8308-3.9167-8.7474-8.7474-8.7474zm0.72895 11.705v-1.1e-5c0.62982 0.0248 1.2502 0.07435 1.8501 0.16184 0.17787-0.75738 0.28939-1.557 0.3324-2.3902h-2.1825zm1.4266 1.576v-5e-6c-0.46508-0.0605-0.94108-0.09915-1.4266-0.11954v2.6388c0.5817-0.69907 1.0628-1.5498 1.4266-2.5193zm-1.4266-5.2623 2.1825-8e-6c-0.04155-0.82226-0.15162-1.6124-0.32511-2.3611-0.60285 0.088219-1.2246 0.1385-1.8574 0.1633zm0-3.655v1.09e-5c0.48913-0.020416 0.96878-0.05907 1.4368-0.12029-0.36448-0.98117-0.84923-1.8421-1.4368-2.5484zm1.9704-2.3815c0.36156 0.61451 0.67573 1.2837 0.9265 2.0068 0.5161-0.12028 1.0038-0.27191 1.4718-0.44247-0.6823-0.66918-1.4965-1.2028-2.3983-1.5643zm-5.2784 9.8846v8e-6c0.60066-0.087475 1.2195-0.13704 1.8501-0.16184v-2.2284h-2.1825c0.04228 0.8332 0.15453 1.6329 0.3324 2.3902zm1.8501 1.2946c-0.48548 0.02042-0.96149 0.05904-1.4266 0.11955 0.36375 0.96951 0.84486 1.8202 1.4266 2.5193zm-2.1825-5.1428 2.1825 9e-6v-2.1978c-0.63273-0.024796-1.2545-0.075077-1.8574-0.16329-0.17422 0.74864-0.28357 1.5388-0.32511 2.3611zm0.74645-3.7752v-1.12e-5c0.46726 0.061246 0.94691 0.099899 1.436 0.12029v-2.6687c-0.58681 0.70636-1.0716 1.5672-1.436 2.5484zm-1.4616-0.25512v-1.11e-5c0.25149-0.7224 0.56567-1.3916 0.92723-2.0068-0.90172 0.36156-1.7152 0.89516-2.3983 1.5643 0.46726 0.17059 0.95493 0.3222 1.471 0.44249zm-0.4002 1.3981c-0.72312-0.17276-1.4054-0.39799-2.0469-0.66116-0.64002 0.96295-1.0584 2.0848-1.1787 3.2934h2.867c0.042277-0.91192 0.1662-1.7932 0.35865-2.6323zm0.00661 6.7516 4.3e-6 -1.1e-5c-0.19609-0.84777-0.32219-1.7393-0.36448-2.6614h-2.8677c0.12101 1.2188 0.54453 2.3494 1.1933 3.3175 0.63929-0.26097 1.3187-0.48403 2.0389-0.65606zm0.40311 1.3974h1.4e-6c-0.51026 0.11809-0.99356 0.26826-1.4572 0.43519 0.67793 0.65897 1.482 1.1846 2.3735 1.5417-0.35646-0.60576-0.66699-1.2655-0.9163-1.9769zm7.2341 0h6e-6c-0.25003 0.71146-0.56057 1.3712-0.91702 1.9777 0.89151-0.35792 1.6955-0.88422 2.3742-1.5425-0.46434-0.16767-0.94691-0.31636-1.4572-0.43519zm0.40312-1.3974c0.71948 0.17203 1.3996 0.3951 2.0389 0.65606 0.64877-0.96805 1.0723-2.0987 1.194-3.3175h-2.8677c-0.04301 0.92213-0.16838 1.8136-0.3652 2.6614zm0.3652-4.1193h2.867c-0.12028-1.2086-0.5387-2.3305-1.178-3.2934-0.64148 0.26315-1.3245 0.48839-2.0476 0.66116 0.19171 0.83903 0.31638 1.7203 0.35864 2.6323z" fill="#f4b860"/>
  </clipPath>
 </defs>
 <metadata>
  <rdf:RDF>
   <cc:Work rdf:about="">
    <dc:format>image/svg+xml</dc:format>
    <dc:type rdf:resource="http://purl.org/dc/dcmitype/StillImage"/>
    <dc:title/>
   </cc:Work>
  </rdf:RDF>
 </metadata>
 <path d="m24 12a12 12 0 0 1-12 12 12 12 0 0 1-12-12 12 12 0 0 1 12-12 12 12 0 0 1 12 12z" clip-path="url(#clipPath834)" fill="#fffffc"/>
</svg>
