<?xml version="1.0" encoding="UTF-8" standalone="no"?>
<svg
   xmlns:dc="http://purl.org/dc/elements/1.1/"
   xmlns:cc="http://creativecommons.org/ns#"
   xmlns:rdf="http://www.w3.org/1999/02/22-rdf-syntax-ns#"
   xmlns:svg="http://www.w3.org/2000/svg"
   xmlns="http://www.w3.org/2000/svg"
   xmlns:sodipodi="http://sodipodi.sourceforge.net/DTD/sodipodi-0.dtd"
   xmlns:inkscape="http://www.inkscape.org/namespaces/inkscape"
   width="24mm"
   height="24mm"
   viewBox="0 0 24 24"
   version="1.1"
   id="svg8"
   inkscape:version="1.0.2 (e86c870879, 2021-01-15)"
   sodipodi:docname="live-projectCard Mobile.svg">
  <defs
     id="defs2" />
  <sodipodi:namedview
     id="base"
     pagecolor="#000000"
     bordercolor="#666666"
     borderopacity="1.0"
     inkscape:pageopacity="0"
     inkscape:pageshadow="2"
     inkscape:zoom="2.8"
     inkscape:cx="43.427768"
     inkscape:cy="41.111059"
     inkscape:document-units="mm"
     inkscape:current-layer="layer1"
     inkscape:document-rotation="0"
     showgrid="false"
     inkscape:window-width="1366"
     inkscape:window-height="737"
     inkscape:window-x="0"
     inkscape:window-y="31"
     inkscape:window-maximized="0" />
  <metadata
     id="metadata5">
    <rdf:RDF>
      <cc:Work
         rdf:about="">
        <dc:format>image/svg+xml</dc:format>
        <dc:type
           rdf:resource="http://purl.org/dc/dcmitype/StillImage" />
        <dc:title />
      </cc:Work>
    </rdf:RDF>
  </metadata>
  <g
     inkscape:label="Layer 1"
     inkscape:groupmode="layer"
     id="layer1">
    <circle
       style="fill:#fffffc;fill-opacity:1;stroke:none;stroke-width:0.868836;stroke-linejoin:round"
       id="path833"
       cx="12"
       cy="12"
       r="12" />
    <path
       d="m 12,3.2525531 c -4.8307782,0 -8.7474469,3.9166687 -8.7474469,8.7474469 0,4.830778 3.9166687,8.747447 8.7474469,8.747447 4.830778,0 8.747447,-3.916669 8.747447,-8.747447 0,-4.830781 -3.916669,-8.7474469 -8.747447,-8.7474469 z m 0.728953,11.7048139 v -2.228414 h 2.182489 c -0.04301,0.833195 -0.154533,1.632858 -0.332403,2.390238 -0.599928,-0.08748 -1.22027,-0.137039 -1.850086,-0.161835 z m 1.426564,1.575998 c -0.363751,0.969509 -0.84486,1.820196 -1.426564,2.519265 v -2.638814 c 0.485482,0.02039 0.961489,0.05904 1.426564,0.119544 z M 12.728953,11.271047 V 9.0732503 c 0.632731,-0.024796 1.25453,-0.075076 1.857376,-0.1632949 0.173489,0.7486355 0.283564,1.5388236 0.325113,2.3610836 z m 0,-3.6549753 V 4.9473711 c 0.587536,0.7063562 1.072291,1.5672496 1.436769,2.5484239 -0.46799,0.061218 -0.947642,0.099872 -1.436769,0.1202877 z m 1.970363,-2.3814928 c 0.901717,0.3615613 1.715957,0.8951553 2.398258,1.5643352 -0.467987,0.1705683 -0.955657,0.3221981 -1.471756,0.4424748 -0.250769,-0.7231232 -0.564942,-1.3923018 -0.926502,-2.00681 z M 9.4209606,15.119194 C 9.2430913,14.361811 9.1308374,13.562148 9.0885576,12.728953 h 2.1824894 v 2.228414 c -0.630546,0.0248 -1.249427,0.07436 -1.8500864,0.161835 z m 1.8500864,1.294622 V 19.05263 C 10.68934,18.353561 10.208231,17.502871 9.8444831,16.533362 10.309555,16.47286 10.785562,16.434234 11.271047,16.413816 Z M 9.0885576,11.271044 c 0.041547,-0.82226 0.1508969,-1.6124476 0.325113,-2.361083 0.6028464,0.088218 1.2246424,0.1384989 1.8573764,0.1632948 V 11.271053 Z M 9.8350055,7.495795 C 10.199483,6.5146207 10.684238,5.6537273 11.271047,4.9473711 V 7.6160717 C 10.781917,7.5956839 10.302265,7.5570299 9.8350055,7.495784 Z M 8.3734546,7.2406726 C 7.8573552,7.1203849 7.3696857,6.9687716 6.902426,6.798184 7.5854542,6.1290052 8.3989668,5.5954112 9.3006839,5.2338499 8.9391209,5.8490871 8.624943,6.5182657 8.3734546,7.2406616 Z M 7.9732595,8.6388039 C 7.7808157,9.4778314 7.6568913,10.359136 7.6146142,11.271058 H 4.7476376 C 4.8679143,10.062453 5.2863345,8.9405922 5.9263559,7.9776429 6.5678355,8.2408102 7.2501364,8.4660425 7.9732595,8.6388039 Z m 0.00661,6.7515711 C 7.2596635,15.562404 6.5802803,15.785468 5.9409866,16.046434 5.2922214,15.078374 4.8686992,13.947766 4.7476927,12.728953 h 2.867704 c 0.042291,0.922127 0.1683918,1.813639 0.3644778,2.661411 z m 0.4031099,1.397404 C 8.6322908,17.49924 8.9428183,18.158944 9.2992761,18.764702 8.4077693,18.407517 7.6037343,17.881938 6.9258058,17.222967 7.3894205,17.056035 7.8727176,16.905871 8.3829817,16.787779 Z m 7.2341386,0 c 0.510273,0.118828 0.99284,0.267521 1.457184,0.435188 -0.678655,0.658243 -1.482693,1.18455 -2.374203,1.542465 0.356458,-0.606488 0.666991,-1.266192 0.917025,-1.977653 z m 0.403116,-1.397404 c 0.196824,-0.847772 0.322198,-1.739284 0.365205,-2.661411 h 2.867705 c -0.121748,1.218813 -0.545257,2.349421 -1.194025,3.31747 -0.639294,-0.260963 -1.319407,-0.484025 -2.038885,-0.656059 z m 0.365205,-4.119317 c -0.04226,-0.911922 -0.166932,-1.7932266 -0.358645,-2.6322541 0.723123,-0.1727724 1.406154,-0.3980075 2.047632,-0.661161 0.639294,0.9629493 1.057711,2.0848101 1.177991,3.2934151 z"
       id="path832"
       style="fill:#f4b860;fill-opacity:1;stroke:none;stroke-width:0.728953" />
  </g>
</svg>
