<?xml version="1.0" encoding="UTF-8"?>
<svg version="1.1" viewBox="0 0 512 512" xmlns="http://www.w3.org/2000/svg" xmlns:cc="http://creativecommons.org/ns#" xmlns:dc="http://purl.org/dc/elements/1.1/" xmlns:rdf="http://www.w3.org/1999/02/22-rdf-syntax-ns#">
 <metadata>
  <rdf:RDF>
   <cc:Work rdf:about="">
    <dc:format>image/svg+xml</dc:format>
    <dc:type rdf:resource="http://purl.org/dc/dcmitype/StillImage"/>
    <dc:title>HTML5 Logo</dc:title>
   </cc:Work>
  </rdf:RDF>
 </metadata>
 <title>HTML5 Logo</title>
 <g transform="matrix(1.2444 0 0 1.2444 -62.579 -125.22)">
  <polygon points="437.37 100.62 404.32 470.82 255.78 512 107.64 470.88 74.633 100.62" fill="#e44d26"/>
  <polygon points="256 130.89 256 480.52 376.03 447.25 404.27 130.89" fill="#f16529"/>
  <polygon points="143.22 188.49 154.38 313.63 256 313.63 256 268.22 195.91 268.22 191.76 221.72 256 221.72 256 176.3 255.84 176.3 142.13 176.3" fill="#ebebeb"/>
  <polygon points="255.79 433.46 256 433.4 256 386.15 255.8 386.21 205.23 372.55 201.99 336.33 177.42 336.33 156.41 336.33 162.77 407.63" fill="#ebebeb"/>
  <polygon points="349.62 399.96 360.29 280.41 361.4 268.22 349.16 268.22 255.84 268.22 255.84 313.63 311.76 313.63 306.49 372.52 255.84 386.19 255.84 433.44 348.94 407.63" fill="#ffffff"/>
  <polygon points="366.44 211.51 368.51 188.49 369.6 176.3 255.84 176.3 255.84 204.51 255.84 221.6 255.84 221.72 365.38 221.72 365.53 221.72" fill="#ffffff"/>
 </g>
</svg>
