<?xml version="1.0" encoding="UTF-8"?>
<svg width="128" height="128" version="1.1" xmlns="http://www.w3.org/2000/svg" xmlns:cc="http://creativecommons.org/ns#" xmlns:dc="http://purl.org/dc/elements/1.1/" xmlns:rdf="http://www.w3.org/1999/02/22-rdf-syntax-ns#">
 <defs>
  <clipPath id="clipPath853">
   <circle cx="64" cy="64" r="62.499" fill="none" stroke="#ff0000" stroke-linejoin="round" stroke-width="3.0019"/>
  </clipPath>
 </defs>
 <metadata>
  <rdf:RDF>
   <cc:Work rdf:about="">
    <dc:format>image/svg+xml</dc:format>
    <dc:type rdf:resource="http://purl.org/dc/dcmitype/StillImage"/>
    <dc:title/>
   </cc:Work>
  </rdf:RDF>
 </metadata>
 <rect width="128" height="128" clip-path="url(#clipPath853)" fill="#ffffff" stroke-linejoin="round" stroke-width="4.9865"/>
 <g transform="matrix(.95506 0 0 .96564 6.696 39.391)">
  <path d="m16.147 5.154 1.09 2.05a6.15 6.15 0 0 0 0.824 1.024c0.913 0.913 1.782 1.87 2.56 2.895 1.848 2.427 3.095 5.122 3.986 8.04 0.534 1.782 0.824 3.608 0.846 5.456 0.09 5.523-1.804 10.266-5.634 14.208a16.3 16.3 0 0 1-2.004 1.715c-0.38 0-0.557-0.3-0.713-0.557-0.3-0.5-0.468-1.047-0.557-1.603-0.134-0.668-0.223-1.336-0.178-2.027v-0.312c-0.022-0.067-0.356-30.732-0.223-30.888z" fill="#599636"/>
  <path d="m16.147 5.088c-0.045-0.09-0.09-0.022-0.134 0.022 0.022 0.445-0.134 0.846-0.38 1.225-0.267 0.38-0.624 0.668-0.98 0.98-1.982 1.715-3.54 3.786-4.788 6.102-1.648 3.118-2.516 6.458-2.76 9.977-0.11 1.27 0.4 5.746 0.802 7.037 1.09 3.43 3.05 6.302 5.6 8.796 0.624 0.6 1.292 1.158 1.982 1.692 0.2 0 0.223-0.178 0.267-0.312a6.11 6.11 0 0 0 0.2-0.869c0.2-1.113 0.312-2.227 0.445-3.34l-0.245-31.31z" fill="#6cac48"/>
  <path d="m17.24 41.9c0.045-0.512 0.3-0.935 0.557-1.358-0.267-0.11-0.468-0.334-0.624-0.58-0.134-0.223-0.245-0.5-0.334-0.735-0.312-0.935-0.38-1.915-0.468-2.873v-0.58c-0.11 0.09-0.134 0.846-0.134 0.958-0.067 1.024-0.2 2.027-0.4 3.006-0.067 0.4-0.11 0.802-0.356 1.158 0 0.045 0 0.09 0.022 0.156 0.4 1.18 0.512 2.383 0.58 3.608v0.445c0 0.534-0.022 0.423 0.423 0.6 0.178 0.067 0.38 0.09 0.557 0.223 0.134 0 0.156-0.11 0.156-0.2l-0.067-0.735v-2.05c-0.022-0.356 0.045-0.713 0.09-1.047z" fill="#c2bfbf"/>
  <g transform="matrix(1.0211,0,0,1.0211,-4.3763,-1.8459)">
   <path d="m37.73 33.72v2.077a1.45 1.45 0 0 0 0.014 0.246c0.027 0.246 0.178 0.396 0.4 0.465a4.97 4.97 0 0 0 0.63 0.123c0.123 0.014 0.164 0.068 0.178 0.2 0.014 0.465-0.027 0.52-0.478 0.492-1.052-0.055-2.105-0.068-3.157 0h-0.1c-0.328 0.014-0.355-0.014-0.355-0.342 0-0.055 0.014-0.123 0.014-0.178 0-0.1 0.068-0.15 0.164-0.15 0.22-0.027 0.424-0.082 0.63-0.123 0.287-0.068 0.45-0.246 0.478-0.533 0.04-0.314 0.04-0.642 0.04-0.957l0.014-3.662a0.56 0.56 0 0 0-0.3-0.52 3.89 3.89 0 0 0-0.78-0.328c-0.082-0.027-0.164-0.04-0.232-0.082-0.2-0.096-0.205-0.273-0.014-0.383 0.068-0.04 0.15-0.068 0.232-0.082a12.42 12.42 0 0 0 2.432-0.615c0.164-0.055 0.205-0.04 0.22 0.123 0.014 0.1 0 0.22-0.014 0.314-0.027 0.178-0.027 0.355-0.027 0.52 0 0.068 0.014 0.137 0.082 0.178s0.137 0 0.2-0.04c0.287-0.22 0.574-0.424 0.888-0.6 0.45-0.246 0.93-0.465 1.45-0.533 0.63-0.082 1.175 0.082 1.654 0.492a3.1 3.1 0 0 1 0.519 0.601c0.137 0.2 0.15 0.205 0.328 0.068 0.52-0.383 1.066-0.724 1.654-0.97 0.615-0.26 1.244-0.3 1.872-0.082 0.642 0.232 1.08 0.683 1.34 1.298 0.22 0.492 0.314 1 0.314 1.53v3.662c0 0.246 0.1 0.4 0.342 0.52 0.26 0.1 0.547 0.15 0.82 0.205 0.178 0.04 0.178 0.04 0.178 0.22-0.027 0.45-0.068 0.478-0.506 0.45a29.42 29.42 0 0 0-3.293 0c-0.22 0.014-0.22 0.014-0.232-0.205v-0.068c-0.014-0.37-0.014-0.37 0.342-0.45l0.355-0.096a0.55 0.55 0 0 0 0.424-0.533l0.04-1.025-0.027-2.678a2.13 2.13 0 0 0-0.15-0.697c-0.342-0.834-1.093-1.134-1.818-1.052-0.547 0.055-1.025 0.273-1.476 0.588-0.096 0.068-0.164 0.15-0.15 0.287 0.123 0.875 0.04 1.75 0.055 2.624v1.9c0 0.342 0.137 0.506 0.465 0.588l0.63 0.137c0.096 0.014 0.15 0.055 0.15 0.164v0.1c-0.014 0.383-0.04 0.4-0.424 0.396-1.093-0.055-2.187-0.04-3.266 0-0.37 0.014-0.4-0.027-0.383-0.4 0.014-0.22 0.04-0.232 0.246-0.273l0.45-0.082c0.4-0.082 0.547-0.232 0.574-0.656l0.04-0.916-0.027-2.747c-0.027-0.342-0.1-0.67-0.287-0.984-0.273-0.506-0.7-0.765-1.285-0.793-0.588-0.04-1.107 0.178-1.6 0.45-0.342 0.2-0.492 0.437-0.465 0.834v1.995zm25.747 0.083v1.927a4.13 4.13 0 0 0 0.027 0.41 0.42 0.42 0 0 0 0.328 0.383 3.19 3.19 0 0 0 0.724 0.123c0.137 0.014 0.164 0.068 0.178 0.178v0.096c-0.014 0.478-0.068 0.533-0.533 0.506-1.04-0.068-2.077-0.055-3.116 0l-0.4 0.014c-0.082 0-0.1-0.04-0.123-0.096a1.39 1.39 0 0 1 0-0.574c0.014-0.082 0.068-0.1 0.15-0.123 0.2-0.027 0.37-0.068 0.56-0.1 0.342-0.082 0.465-0.22 0.478-0.574l0.04-1.148v-3.362c0-0.246-0.096-0.396-0.314-0.506-0.246-0.137-0.506-0.232-0.78-0.328-0.082-0.027-0.164-0.055-0.232-0.096-0.178-0.123-0.2-0.3-0.027-0.437a0.49 0.49 0 0 1 0.273-0.11c0.875-0.137 1.722-0.328 2.542-0.656 0.096-0.04 0.137-0.014 0.178 0.068s0.055 0.178 0.04 0.273l-0.04 0.642c0 0.082-0.04 0.2 0.027 0.232 0.082 0.055 0.137-0.068 0.205-0.1a6.09 6.09 0 0 1 1.326-0.847c0.424-0.2 0.86-0.328 1.353-0.3 0.916 0.055 1.572 0.52 1.995 1.326 0.22 0.424 0.314 0.888 0.355 1.367l0.04 1 0.014 3.02c0.014 0.232 0.096 0.383 0.328 0.465a4.47 4.47 0 0 0 0.738 0.178c0.22 0.027 0.232 0.068 0.246 0.273v0.068c-0.027 0.465-0.055 0.478-0.52 0.45a28.59 28.59 0 0 0-3.061 0c-0.137 0.014-0.273 0-0.4 0.014-0.082 0-0.137-0.014-0.15-0.096-0.027-0.178-0.055-0.355-0.014-0.547 0.014-0.082 0.055-0.123 0.15-0.137l0.63-0.1c0.22-0.055 0.342-0.2 0.37-0.4l0.027-0.383-0.014-2.856c0-0.328-0.014-0.656-0.082-0.984-0.164-0.7-0.697-1.2-1.42-1.27-0.63-0.068-1.2 0.096-1.722 0.437-0.26 0.164-0.37 0.396-0.37 0.683v2.064c0-0.04 0-0.04 0.014-0.04z" fill="#47474a"/>
   <path d="m103.5 29.935c-0.15-0.998-0.52-1.886-1.162-2.665a5.27 5.27 0 0 0-2.105-1.558c-0.86-0.355-1.777-0.465-2.706-0.492-0.383-0.014-5.603 0.068-5.986 0-0.096-0.014-0.164 0.014-0.22 0.096-0.068 0.1-0.137 0.205-0.178 0.314-0.164 0.37-0.164 0.342 0.232 0.396 0.328 0.055 0.642 0.082 0.957 0.178 0.287 0.096 0.492 0.26 0.56 0.574 0.027 0.15 0.055 4.96 0.055 7.202l-0.055 1.6c-0.014 0.123-0.027 0.246-0.068 0.355-0.055 0.164-0.15 0.3-0.314 0.37a1.62 1.62 0 0 1-0.574 0.15c-0.37 0.04-0.424 0.055-0.547 0.465l-0.04 0.15c-0.027 0.178-0.014 0.205 0.164 0.205l4.086 0.04 1.6-0.027 1.107-0.137c1.257-0.232 2.378-0.752 3.334-1.585a5.55 5.55 0 0 0 1.312-1.722c0.383-0.765 0.547-1.6 0.588-2.446 0.068-0.478 0.04-0.97-0.04-1.462zm-1.982 1.94c-0.055 0.875-0.232 1.722-0.683 2.487-0.574 0.998-1.394 1.695-2.528 1.94-0.492 0.1-0.984 0.15-1.5 0.082-0.37-0.04-0.724-0.082-1.066-0.205-0.615-0.22-0.834-0.6-0.847-1.2l-0.014-8.24c0-0.492 0.22-0.6 0.574-0.615 0.533-0.04 1.08-0.027 1.613 0.027a6.06 6.06 0 0 1 1.654 0.4 3.98 3.98 0 0 1 1.08 0.67c0.738 0.63 1.23 1.42 1.5 2.35 0.22 0.752 0.26 1.517 0.22 2.282zm13.34 1.34c0-0.082 0-0.15-0.014-0.232-0.123-0.752-0.52-1.326-1.134-1.763-0.396-0.287-0.847-0.478-1.312-0.615-0.082-0.027-0.15-0.055-0.232-0.068 0.014-0.068 0.055-0.082 0.096-0.096 0.273-0.137 0.533-0.287 0.765-0.492 0.424-0.355 0.7-0.793 0.847-1.326 0.082-0.287 0.082-0.574 0.055-0.875a2.35 2.35 0 0 0-0.998-1.777c-0.63-0.465-1.367-0.656-2.132-0.67-1.476-0.027-2.965 0-4.44 0-0.424 0-0.847 0.027-1.285-0.04-0.082-0.014-0.2-0.04-0.26 0.055-0.1 0.178-0.22 0.355-0.26 0.56-0.014 0.096 0.014 0.15 0.123 0.164l0.943 0.137c0.37 0.055 0.63 0.26 0.656 0.588a5.78 5.78 0 0 1 0.04 0.683l-0.027 2.555-0.014 5.056c0 0.3-0.04 0.588-0.096 0.888a0.5 0.5 0 0 1-0.355 0.41c-0.273 0.082-0.533 0.164-0.82 0.164a0.34 0.34 0 0 0-0.355 0.232c-0.055 0.123-0.1 0.26-0.123 0.383-0.027 0.164 0.014 0.22 0.178 0.2 0.123-0.014 4.633 0.096 5.48 0.014 0.506-0.055 1-0.123 1.503-0.273 0.86-0.273 1.654-0.67 2.282-1.34 0.52-0.547 0.82-1.203 0.847-1.968 0.04-0.178 0.04-0.355 0.04-0.547zm-6.628-5.6 0.04-1.093c0-0.205 0.082-0.3 0.287-0.342 0.328-0.068 0.656-0.04 0.984-0.027 0.328 0.027 0.642 0.068 0.97 0.164 0.6 0.178 1.066 0.52 1.34 1.093a1.96 1.96 0 0 1 0.191 0.834c0.014 0.383-0.014 0.752-0.164 1.12-0.232 0.506-0.6 0.834-1.134 0.93s-2.05 0.055-2.282 0.055c-0.205 0-0.22-0.027-0.22-0.232v-1.287a8.79 8.79 0 0 1-0.014-1.203zm4.44 7.352c-0.232 0.615-0.656 1.04-1.257 1.27-0.328 0.123-0.656 0.2-1 0.178-0.424-0.014-0.847 0-1.27-0.082-0.574-0.123-0.834-0.67-0.875-1.066-0.068-0.697-0.027-1.408-0.04-1.927v-1.804c0-0.22 0.027-0.287 0.26-0.287l1.285 0.014 0.875 0.1c0.615 0.137 1.175 0.37 1.613 0.847 0.355 0.383 0.547 0.847 0.588 1.353 0.04 0.478 0.014 0.943-0.164 1.394z" fill="#c2bfbf"/>
   <path d="m77.95 30.85 0.355 0.055c0.383 0.014 0.834-0.123 0.97-0.656a1.38 1.38 0 0 0 0-0.78c-0.082 0-0.123 0.068-0.164 0.096-0.205 0.164-0.437 0.26-0.683 0.287-0.492 0.055-0.984 0.027-1.462-0.15l-0.67-0.232a3.95 3.95 0 0 0-1.45-0.19c-0.697 0.055-1.353 0.287-1.968 0.615-0.656 0.355-1.12 0.888-1.34 1.613-0.123 0.424-0.137 0.86-0.082 1.298 0.137 0.998 0.656 1.695 1.585 2.064 0.055 0.014 0.096 0.04 0.15 0.055 0.123 0.068 0.137 0.137 0.027 0.232l-0.342 0.232-0.82 0.506c-0.205 0.123-0.232 0.22-0.164 0.437a1.43 1.43 0 0 0 0.437 0.656 2.28 2.28 0 0 0 0.629 0.383c0.15 0.068 0.15 0.1 0.014 0.22l-0.78 0.56c-0.26 0.2-0.52 0.4-0.738 0.656a1.35 1.35 0 0 0-0.328 1.23 2.31 2.31 0 0 0 0.71 1.23 2.9 2.9 0 0 0 1.257 0.683c0.765 0.22 1.558 0.232 2.337 0.082 1.12-0.205 2.1-0.7 2.87-1.544 0.533-0.56 0.847-1.216 0.875-2a1.92 1.92 0 0 0-1.476-1.995l-0.738-0.137-2.255-0.2c-0.246-0.014-0.492-0.055-0.697-0.178-0.26-0.164-0.328-0.478-0.164-0.683 0.123-0.15 0.273-0.246 0.465-0.26l0.437-0.04a3.96 3.96 0 0 0 2.309-1.052 2.42 2.42 0 0 0 0.697-1.162c0.164-0.588 0.164-1.2 0.027-1.8-0.04-0.15-0.027-0.164 0.164-0.137zm-3.35 6.807c0.082 0.014 0.164 0 0.246 0 0.574 0.027 1.162 0.068 1.722 0.22a3.58 3.58 0 0 1 0.533 0.205c0.547 0.3 0.752 0.82 0.683 1.38-0.082 0.615-0.424 1.052-0.957 1.34-0.355 0.2-0.752 0.287-1.162 0.328-0.15 0.014-0.287 0-0.437 0-0.478 0.014-0.943-0.04-1.394-0.232-0.314-0.123-0.574-0.3-0.806-0.547-0.478-0.478-0.7-1.353 0.014-2.064 0.437-0.4 0.93-0.683 1.558-0.63zm1.558-4.264c-0.287 0.724-0.916 0.943-1.544 0.847-0.574-0.082-0.998-0.396-1.27-0.916-0.355-0.697-0.45-1.42-0.246-2.173 0.15-0.56 0.492-0.984 1.093-1.08 0.765-0.137 1.5 0.137 1.886 0.902 0.2 0.37 0.287 0.82 0.287 1.462-0.014 0.26-0.068 0.615-0.205 0.957zm-17.218-0.93c-0.123-0.738-0.396-1.408-0.902-1.968-0.752-0.834-1.708-1.2-2.788-1.203-0.943-0.014-1.83 0.26-2.624 0.752a3.56 3.56 0 0 0-1.599 2.091c-0.232 0.793-0.22 1.6-0.04 2.405 0.478 2.16 2.146 3.088 4.14 2.952 0.588-0.04 1.148-0.232 1.68-0.492 0.793-0.37 1.367-0.957 1.763-1.736 0.314-0.642 0.45-1.326 0.437-2.105l-0.068-0.697zm-1.94 3.034a1.66 1.66 0 0 1-1.408 1.148c-0.6 0.082-1.162-0.068-1.667-0.424a2.84 2.84 0 0 1-0.861-1.025c-0.56-1.148-0.656-2.35-0.37-3.58a2.05 2.05 0 0 1 0.574-0.998c0.506-0.465 1.093-0.574 1.75-0.437 0.63 0.137 1.107 0.478 1.5 0.998s0.574 1.12 0.683 1.75c0.055 0.314 0.055 0.642 0.068 0.847 0 0.656-0.055 1.2-0.26 1.722zm31.8-2.924c-0.1-0.793-0.396-1.517-0.957-2.118-0.738-0.806-1.695-1.148-2.76-1.162-0.916-0.014-1.763 0.246-2.542 0.697-0.875 0.52-1.476 1.257-1.708 2.255a4.77 4.77 0 0 0 0.328 3.252c0.45 0.957 1.216 1.572 2.228 1.845 1.12 0.3 2.187 0.164 3.225-0.342 0.902-0.437 1.544-1.12 1.913-2.05 0.22-0.547 0.3-1.134 0.314-1.818 0.014-0.123-0.014-0.342-0.04-0.56zm-1.886 2.747c-0.22 0.738-0.683 1.216-1.462 1.326-0.574 0.082-1.12-0.055-1.613-0.383-0.424-0.287-0.724-0.67-0.943-1.12-0.246-0.478-0.383-0.984-0.437-1.503-0.082-0.642-0.082-1.27 0.068-1.913a1.95 1.95 0 0 1 0.123-0.369c0.383-0.957 1.23-1.394 2.228-1.175 0.67 0.15 1.175 0.52 1.558 1.08 0.37 0.547 0.547 1.148 0.63 1.8 0.04 0.26 0.055 0.533 0.04 0.765 0 0.533-0.04 1.025-0.2 1.503z" fill="#47474a"/>
  </g>
 </g>
</svg>
