<?xml version="1.0" encoding="UTF-8"?>
<svg width="128" height="128" version="1.1" viewBox="0 0 9.8689 9.8688" xmlns="http://www.w3.org/2000/svg" xmlns:cc="http://creativecommons.org/ns#" xmlns:dc="http://purl.org/dc/elements/1.1/" xmlns:rdf="http://www.w3.org/1999/02/22-rdf-syntax-ns#">
 <metadata>
  <rdf:RDF>
   <cc:Work rdf:about="">
    <dc:format>image/svg+xml</dc:format>
    <dc:type rdf:resource="http://purl.org/dc/dcmitype/StillImage"/>
    <dc:title/>
   </cc:Work>
  </rdf:RDF>
 </metadata>
 <defs>
  <clipPath id="clipPath840">
   <circle cx="4.9344" cy="4.9344" r="4.83" fill="none" stroke="#ffff00" stroke-linejoin="round" stroke-width=".20882"/>
  </clipPath>
 </defs>
 <rect y="-2.68e-5" width="9.8689" height="9.8689" clip-path="url(#clipPath840)" fill="#ffffff" stroke-linejoin="round" stroke-width=".37885"/>
 <g transform="matrix(.50205 0 0 .50285 .35288 3.6687)" fill-rule="evenodd">
  <g fill="#00678c">
   <path d="m2.92 2.906c-0.133-3e-3 -0.237 0.01-0.324 0.047-0.025 0.01-0.065 0.01-0.068 0.042 0.013 0.013 0.015 0.035 0.027 0.053a0.39 0.39 0 0 0 0.087 0.102l0.107 0.077c0.065 0.04 0.138 0.063 0.202 0.103 0.037 0.023 0.073 0.053 0.1 0.078 0.018 0.013 0.03 0.035 0.053 0.043v-5e-3c-0.012-0.015-0.015-0.037-0.027-0.053l-0.05-0.048a0.79 0.79 0 0 0-0.173-0.168c-0.053-0.037-0.17-0.087-0.192-0.148l-3e-3 -3e-3c0.037-3e-3 0.08-0.017 0.115-0.027 0.057-0.015 0.108-0.012 0.167-0.027l0.08-0.023v-0.015c-0.03-0.03-0.052-0.07-0.083-0.098-0.085-0.073-0.178-0.145-0.275-0.205-0.052-0.033-0.118-0.055-0.173-0.083-0.02-0.01-0.053-0.015-0.065-0.032-0.03-0.037-0.047-0.085-0.068-0.128l-0.137-0.29c-0.03-0.065-0.048-0.13-0.085-0.19a1.68 1.68 0 0 0-0.645-0.624c-0.062-0.035-0.135-0.05-0.213-0.068l-0.125-7e-3c-0.027-0.012-0.053-0.043-0.077-0.058-0.095-0.06-0.34-0.19-0.4-0.018-0.045 0.108 0.067 0.215 0.105 0.27 0.028 0.038 0.065 0.082 0.085 0.125 0.012 0.028 0.015 0.058 0.027 0.088l0.087 0.223a0.8 0.8 0 0 0 0.062 0.103c0.013 0.018 0.037 0.027 0.042 0.057-0.023 0.033-0.025 0.083-0.038 0.125-0.06 0.188-0.037 0.422 0.048 0.56 0.027 0.042 0.1 0.133 0.175 0.098 0.075-0.03 0.058-0.125 0.08-0.208 5e-3 -0.02 2e-3 -0.033 0.012-0.047v3e-3l0.068 0.138c0.052 0.082 0.142 0.167 0.217 0.223 0.04 0.03 0.072 0.082 0.122 0.1v-5e-3h-7e-3c-0.01-0.015-0.025-0.022-0.038-0.033a0.81 0.81 0 0 1-0.087-0.1 2.15 2.15 0 0 1-0.187-0.303c-0.027-0.052-0.05-0.108-0.072-0.16-0.01-0.02-0.01-0.05-0.027-0.06-0.025 0.037-0.062 0.068-0.08 0.113-0.032 0.072-0.035 0.16-0.047 0.252-0.06-0.01-0.078-0.065-0.098-0.112-0.05-0.118-0.058-0.31-0.015-0.445 0.012-0.035 0.062-0.145 0.042-0.178-0.01-0.032-0.043-0.05-0.062-0.075-0.022-0.032-0.045-0.072-0.06-0.107-0.029-0.094-0.059-0.198-0.102-0.291-0.02-0.043-0.055-0.087-0.084-0.127-0.031-0.046-0.066-0.078-0.091-0.13-9e-3 -0.02-0.02-0.05-7e-3 -0.07 3e-3 -0.013 0.01-0.018 0.023-0.022 0.022-0.018 0.083 5e-3 0.105 0.015 0.062 0.025 0.113 0.048 0.165 0.083 0.023 0.017 0.048 0.048 0.078 0.057h0.035c0.053 0.012 0.113 3e-3 0.163 0.018 0.088 0.028 0.168 0.07 0.24 0.115a1.48 1.48 0 0 1 0.52 0.57c0.02 0.038 0.028 0.073 0.047 0.113l0.113 0.245c0.035 0.078 0.068 0.158 0.118 0.223 0.025 0.035 0.125 0.053 0.17 0.072 0.033 0.015 0.085 0.028 0.115 0.047l0.167 0.113c0.027 0.02 0.1 0.062 0.115 0.095z"/>
   <path d="m1.22 1.457c-0.028 0-0.048 3e-3 -0.068 8e-3v3e-3h3e-3c0.013 0.027 0.037 0.045 0.053 0.068l0.038 0.08 3e-3 -3e-3c0.023-0.017 0.035-0.043 0.035-0.083-0.01-0.012-0.012-0.023-0.02-0.035-0.01-0.017-0.032-0.025-0.045-0.038z"/>
  </g>
  <path d="m10.064 3.34h1.434c0.168 0 0.328-0.034 0.458-0.095 0.217-0.1 0.32-0.233 0.32-0.408v-0.366c0-0.14-0.118-0.275-0.354-0.366a1.25 1.25 0 0 0-0.423-0.072h-0.602c-0.202 0-0.297-0.06-0.324-0.194-4e-3 -0.015-4e-3 -0.03-4e-3 -0.046v-0.225c0-0.012 0-0.027 4e-3 -0.042 0.027-0.103 0.08-0.13 0.256-0.15h1.468v-0.332h-1.397c-0.202 0-0.31 0.012-0.404 0.042-0.294 0.09-0.423 0.236-0.423 0.492v0.29c0 0.225 0.252 0.416 0.68 0.46 0.046 4e-3 0.095 4e-3 0.145 4e-3h0.515c0.02 0 0.038 0 0.053 4e-3 0.156 0.015 0.225 0.042 0.27 0.1 0.03 0.03 0.038 0.057 0.038 0.092v0.29c0 0.034-0.023 0.08-0.07 0.118s-0.118 0.065-0.214 0.07c-0.02 0-0.03 4e-3 -0.05 4e-3h-1.376zm5.315-0.576c0 0.34 0.256 0.53 0.767 0.568l0.145 8e-3h1.296v-0.33h-1.307c-0.3 0-0.4-0.072-0.4-0.248v-1.717h-0.5v1.72zm-2.787 0.015v-1.181c0-0.3 0.213-0.484 0.63-0.54l0.133-8e-3h0.946c0.05 0 0.092 4e-3 0.14 8e-3 0.416 0.057 0.625 0.24 0.625 0.54v1.182c0 0.244-0.088 0.374-0.294 0.46l0.488 0.442h-0.576l-0.397-0.358-0.4 0.023h-0.534c-0.088 0-0.187-0.01-0.3-0.038-0.316-0.088-0.473-0.256-0.473-0.53zm0.538-0.026c0 0.015 8e-3 0.03 0.012 0.05 0.027 0.137 0.156 0.213 0.354 0.213h0.45l-0.412-0.374h0.576l0.362 0.328c0.07-0.038 0.11-0.092 0.126-0.16 4e-3 -0.015 4e-3 -0.034 4e-3 -0.05v-1.13c0-0.015 0-0.03-4e-3 -0.046-0.027-0.13-0.156-0.202-0.35-0.202h-0.75c-0.22 0-0.366 0.095-0.366 0.248z" fill="#ce8b2c"/>
  <path d="m3.445 3.342h0.496v-1.964l0.774 1.712c0.088 0.206 0.214 0.282 0.458 0.282s0.362-0.076 0.454-0.282l0.77-1.712v1.964h0.5v-1.964c0-0.19-0.076-0.282-0.236-0.332-0.377-0.114-0.63-0.015-0.744 0.24l-0.76 1.693-0.732-1.693c-0.11-0.255-0.366-0.354-0.747-0.24-0.156 0.05-0.233 0.14-0.233 0.332zm3.863-1.598h0.5v1.08c-4e-3 0.06 0.02 0.198 0.3 0.202h1.072v-1.29h0.5v1.765c0 0.435-0.538 0.53-0.79 0.534h-1.57v-0.332h1.575c0.32-0.034 0.282-0.194 0.282-0.248v-0.13h-1.057c-0.492-4e-3 -0.808-0.22-0.812-0.47z" fill="#00678c"/>
 </g>
</svg>
