<?xml version="1.0" encoding="UTF-8"?>
<svg width="128" height="128" version="1.1" viewBox="0 0 128 128" xmlns="http://www.w3.org/2000/svg" xmlns:cc="http://creativecommons.org/ns#" xmlns:dc="http://purl.org/dc/elements/1.1/" xmlns:rdf="http://www.w3.org/1999/02/22-rdf-syntax-ns#" xmlns:xlink="http://www.w3.org/1999/xlink">
 <metadata>
  <rdf:RDF>
   <cc:Work rdf:about="">
    <dc:format>image/svg+xml</dc:format>
    <dc:type rdf:resource="http://purl.org/dc/dcmitype/StillImage"/>
    <dc:title/>
   </cc:Work>
  </rdf:RDF>
 </metadata>
 <defs>
  <clipPath id="clipPath894">
   <circle cx="64" cy="64" r="63.552" fill="none" stroke="#008080" stroke-linejoin="round" stroke-width=".89576"/>
  </clipPath>
 </defs>
 <rect width="128" height="128" clip-path="url(#clipPath894)" fill="#ffffff" stroke-linejoin="round" stroke-width="1.0063"/>
 <path d="m67.16 43.983s-5.5024 3.2203-5.1639-3.6679l-17.04 15.242s-0.77903-0.04372-0.79907-0.92104l-1.6561 1.4989v4.4208h10.635z" fill="none" stroke-width=".40252"/>
 <g transform="translate(4)">
  <g fill="#ffca28" stroke-width=".40252">
   <path d="m42.465 34.483 5.3579-5.0971s0.35897 5.6553 6.0864 4.0493l-11.424 11.754z"/>
   <path d="m42.441 47.718 17.591-16.412s-0.58067 6.4024 4.9026 4.5074l-22.432 20.322z"/>
   <path d="m61.995 40.316s-1.1376 6.5674 5.1639 3.6679l-15.401 16.805-9.2583-0.23232v-4.4208z"/>
   <path d="m62.74 52.512s-0.60482 5.2967 5.0061 4.7219l-4.0352 3.613h-9.6833z"/>
  </g>
  <g transform="matrix(.40252 0 0 .40252 6.7236e-6 -3.3667e-6)" fill="#ef4035">
   <path d="m118.81 73.006s14.074-17.871 23.395-10.588c0 0 5.4485 4.6886-8.2739 20.649 0 0-12.962 4.8957-15.121-10.06z"/>
   <path d="m149.14 77.778s14.074-17.871 23.395-10.588c0 0 4.8178 4.6036-8.9046 20.564-0.20238 0.24967-15.299 8.6416-14.49-9.9754z"/>
   <path d="m154.02 100.16s11.783-17.88 21.104-10.597c0 0 5.447 3.7495-8.2754 19.71-0.30006 0.0924-15.191 7.2357-12.829-9.1124z"/>
   <path d="m155.87 130.46s14.447-17.511 23.768-10.228c0.0965 0.0313 5.6532 5.2738-9.2857 20.839-0.1389 0.15762-14.018 6.268-14.483-10.611z"/>
  </g>
  <g stroke-width=".40252">
   <path d="m76.828 19.783-2.3074 6.0792s0.95606 2.8907 8.551 4.3709l0.48966 0.05994-0.0041-10.642z" fill="#df3632"/>
   <path d="m78.096 28.694-3.6265 8.6404s0.78676-0.09678 1.7813 0.81795l3.8512-8.6565s0.58457 0.49747-2.0059-0.80177z" fill="#c62828" fill-opacity=".99608"/>
   <path d="m74.473 37.335s-3.825 1.2312-3.1948 6.6918c0 0 0.49976 1.0183-2.5996 2.0437 0 0 10.216 2.0522 7.5757-7.9179 0 0-0.36433-0.25202-1.7813-0.81795z" fill="#e63e3a"/>
  </g>
 </g>
 <g>
  <text transform="scale(1.0017 .99826)" x="63.913536" y="84.534302" fill="#555555" font-family="FontAwesome" font-size="11.37px" font-weight="bold" stroke-width=".94746" text-anchor="middle" style="line-height:1.25" xml:space="preserve"><tspan x="63.913536" y="84.534302" text-align="center">styled</tspan><tspan x="63.913536" y="98.746178" text-align="center">components</tspan></text>
  <text fill="#000000" font-family="sans-serif" font-size="40px" style="line-height:1.25;shape-inside:url(#rect900);white-space:pre" xml:space="preserve"/>
  <text transform="scale(1.0017 .99826)" x="29.423998" y="51.396534" fill="#555555" font-family="sans-serif" font-size="24px" stroke-width=".94746" style="line-height:1.25" xml:space="preserve"><tspan x="29.423998" y="51.396534" fill="#555555" font-family="FontAwesome" font-size="24px" font-weight="bold" stroke-width=".94746" text-align="center" text-anchor="middle">&lt;</tspan></text>
  <text transform="scale(-1.0017 .99826)" x="-99.143158" y="51.396534" fill="#555555" font-family="sans-serif" font-size="24px" stroke-width=".94746" style="line-height:1.25" xml:space="preserve"><tspan x="-99.143158" y="51.396534" fill="#555555" font-family="FontAwesome" font-size="24px" font-weight="bold" stroke-width=".94746" text-align="center" text-anchor="middle">&lt;</tspan></text>
 </g>
</svg>
